<svg width="152" height="100" viewBox="0 0 152 100" fill="none" xmlns="http://www.w3.org/2000/svg">
<g clip-path="url(#clip0_5_119)">
<path d="M66.88 77.5511V55.6123H76H85.12V67.0919V78.6225L76 89.0817L66.88 99.5409V77.5511Z" fill="white"/>
<path d="M14.6933 86.8368V74.6429L16.4667 73.3674C19.9627 70.8674 25.84 65.2041 29.488 60.8164C37.088 51.6837 43.0667 40.9694 46.9173 29.3878L49.1467 22.7041L47.6267 22.5511C44.6373 22.2449 23.3573 25.4082 16.1627 27.296C14.9973 27.6021 14.2373 26.8878 7.65067 19.1837C3.69867 14.5919 0.405334 10.6123 0.354668 10.4082C0.202668 9.84697 5.57333 8.52044 17.2267 6.1735C33.896 2.80616 46.816 1.22452 62.7253 0.6633L71.9467 0.357178V5.1531C71.9467 18.9286 67.792 35.3062 60.5467 50.2551C52.8453 66.1735 42.3067 79.3368 28.6267 90.0511C24.4213 93.3674 15.9093 98.9796 15.0987 98.9796C14.896 98.9796 14.6933 93.5204 14.6933 86.8368Z" fill="white"/>
<path d="M131.125 95.5102C113.645 83.8776 100.269 68.5204 91.2 49.7449C84.1573 35.2551 80.0533 18.7245 80.0533 5.1531V0.357178L89.3253 0.6633C105.387 1.27555 118.155 2.80616 134.773 6.1735C146.427 8.52044 151.493 9.79595 151.544 10.3572C151.544 10.6123 148.301 14.5919 144.349 19.1837C138.523 26.0204 136.901 27.5511 136.091 27.347C129.251 25.7143 106.704 22.296 104.373 22.5511L102.853 22.7041L105.083 29.3878C108.933 40.9694 114.912 51.6837 122.512 60.8164C126.16 65.2041 132.037 70.8674 135.533 73.3674L137.307 74.6429V86.8368C137.307 93.7245 137.104 98.9796 136.851 98.9796C136.597 98.9796 134.013 97.398 131.125 95.5102Z" fill="white"/>
</g>
<defs>
<clipPath id="clip0_5_119">
<rect width="152" height="100" fill="white"/>
</clipPath>
</defs>
</svg>
