<svg width="138" height="160" viewBox="0 0 138 160" fill="none" xmlns="http://www.w3.org/2000/svg">
<path d="M68.1677 158.041C62.7543 154.097 55.5798 148.673 52.0569 145.861C47.406 142.149 38.2494 133.798 32.4358 127.966C28.4559 123.973 25.4087 120.489 19.3393 112.992C13.526 105.81 11.3354 102.815 7.73773 97.128C5.78686 94.0443 1.41003 86.8809 1.35309 86.6785C1.33898 86.6282 2.35785 85.826 3.61733 84.8958C11.9091 78.7718 13.3871 77.5134 15.6938 74.615C17.5315 72.3056 20.1008 68.32 20.7998 66.694C21.6048 64.8218 22.8233 60.2515 23.7596 55.5931C23.7985 55.3998 23.7211 55.3268 22.7666 54.6544C20.0604 52.7486 17.227 50.3811 15.5178 48.5976C14.0468 47.0627 11.1572 43.4646 10.2553 42.0448L10.1199 41.8318L10.3825 41.7866C10.527 41.762 12.1732 41.545 14.0406 41.3044C18.1289 40.7775 24.2556 39.9026 25.4302 39.6781C27.4843 39.2854 29.8185 38.6075 31.8077 37.8259C32.7266 37.4648 35.301 36.2258 35.5759 36.0122C35.7039 35.9127 35.7008 35.8538 35.5235 35.0029C35.1717 33.3143 35.1238 32.7239 35.1319 30.1782C35.143 26.6287 35.3584 24.6687 36.0321 21.9808C37.1739 17.4251 38.5581 14.1605 40.7342 10.8907C43.3952 6.8924 46.2967 4.14934 49.6932 2.42086C50.5802 1.96948 52.2033 1.29929 52.2593 1.36125C52.2714 1.37459 52.5562 1.97379 52.8922 2.69261C55.5037 8.27875 57.0992 10.9256 59.3567 13.4158C60.1616 14.3037 61.514 15.4732 62.4854 16.1213C64.0591 17.1711 66.4104 18.1843 68.5274 18.7247C69.0499 18.8581 69.213 18.8329 70.5596 18.4116C74.4842 17.1838 77.1876 15.3236 79.8206 12.0393C81.3367 10.1482 82.9828 7.23821 85.1077 2.69261C85.4438 1.97379 85.7286 1.37469 85.7407 1.36125C85.7971 1.29867 87.423 1.97102 88.326 2.43C91.6879 4.13857 94.6169 6.91066 97.2658 10.8907C99.2563 13.8816 100.398 16.4267 101.564 20.475C102.565 23.9495 102.859 26.1441 102.87 30.2178C102.876 32.7196 102.827 33.3225 102.477 35.0029C102.299 35.8538 102.296 35.9129 102.424 36.0122C102.699 36.2258 105.273 37.4648 106.192 37.8259C108.182 38.6075 110.516 39.2854 112.57 39.6781C113.744 39.9026 119.871 40.7775 123.959 41.3044C125.827 41.545 127.473 41.7621 127.617 41.7866L127.88 41.8318L127.745 42.0448C126.843 43.4646 123.953 47.0627 122.482 48.5976C120.773 50.3811 117.94 52.7486 115.233 54.6544C114.279 55.3268 114.202 55.3998 114.24 55.5931C115.177 60.2515 116.395 64.8218 117.2 66.694C117.899 68.32 120.468 72.3056 122.306 74.615C124.613 77.5134 126.091 78.7718 134.383 84.8958C135.642 85.826 136.661 86.6282 136.647 86.6785C136.59 86.8809 132.213 94.0443 130.262 97.128C127.167 102.021 125.602 104.228 121.851 108.992C116.766 115.449 111.211 122.075 108.073 125.428C104.379 129.374 95.3219 137.868 88.7831 143.519C85.9219 145.992 79.4917 150.937 71.3689 156.911C70.3266 157.677 69.3657 158.381 69.2337 158.474L68.9937 158.643L68.1677 158.041ZM66.9075 147.052C68.0302 146.289 68.9829 145.666 69.0246 145.666C69.0662 145.666 70.0171 146.289 71.1377 147.05L73.175 148.435L73.417 148.282C73.9967 147.915 77.2352 145.626 78.3609 144.786C79.9633 143.592 83.9638 140.206 83.9638 140.045C83.9638 140.015 83.4219 139.603 82.7596 139.13C82.0973 138.656 80.9425 137.811 80.1934 137.252L78.8313 136.235L81.4568 133.925C86.0288 129.902 87.0453 128.978 89.9651 126.192C92.4475 123.824 94.0713 122.21 94.0712 122.111C94.0712 121.908 92.4737 116.391 92.1133 115.348C91.8987 114.727 91.7333 114.22 91.7459 114.22C91.7894 114.22 93.8134 116.56 94.897 117.863C96.1226 119.337 97.0693 120.617 98.7633 123.091C99.4047 124.028 99.9739 124.841 100.028 124.897C100.108 124.982 100.497 124.616 102.098 122.957C106.704 118.18 109.063 115.573 112.266 111.716C114.864 108.587 118.33 104.128 120.601 100.992C122.95 97.7477 129.008 88.8524 128.96 88.7183C128.946 88.6783 128.295 88.1754 127.513 87.6008C119.825 81.9498 116.292 78.3484 113.532 73.3466C111.798 70.2052 109.884 64.7239 109.196 60.9296C108.829 58.9088 108.522 56.0561 108.522 54.6779C108.522 54.2371 108.496 54.0998 108.412 54.0998C108.214 54.0998 102.483 56.1184 102.15 56.3055C102.044 56.365 102.031 56.838 102.041 60.1672C102.055 65.1955 101.824 73.3202 101.529 78.1793C101.033 86.3363 100.17 90.3304 97.5843 96.4428C95.75 100.779 92.9738 105.486 89.459 110.218C86.991 113.542 84.9085 115.975 82.2708 118.619C78.8284 122.069 75.6098 124.602 71.9612 126.734C70.8528 127.381 69.1558 128.24 68.9841 128.24C68.6867 128.24 66.8387 127.259 65.0913 126.175C58.598 122.144 51.9965 115.433 46.5145 107.289C43.3877 102.643 41.67 99.4754 39.9289 95.1427C37.4353 88.9374 36.699 84.4873 36.2705 73.0307C36.0514 67.1719 35.9378 61.598 35.9854 59.0395L36.0357 56.3355L34.8298 55.8912C32.1432 54.9013 29.596 54.0473 29.5803 54.1311C29.5711 54.1794 29.5264 54.8424 29.4805 55.6047C29.1838 60.5319 28.2922 64.3982 26.2657 69.5456C24.3783 74.3394 21.7544 78.1578 18.0057 81.5657C16.6311 82.8153 15.3187 83.92 13.6064 85.2683C12.4302 86.1945 9.38341 88.4748 9.1162 88.6288C9.00132 88.6954 9.36069 89.2566 12.2121 93.4667C18.3129 102.475 23.5259 109.3 29.2709 115.802C31.422 118.236 37.7848 124.952 37.94 124.952C37.9729 124.952 38.5388 124.17 39.1978 123.213C40.8258 120.849 41.8451 119.453 42.7838 118.301C43.7328 117.136 46.2491 114.225 46.2806 114.256C46.2929 114.268 46.1219 114.808 45.9005 115.456C45.6791 116.105 45.1432 117.883 44.7096 119.408L43.9213 122.18L44.9031 123.131C50.1396 128.2 52.1254 130.024 58.0448 135.203C58.6631 135.744 59.1674 136.208 59.1656 136.233C59.1605 136.3 54.5142 139.733 54.1248 139.957C53.9973 140.031 54.0877 140.118 56.0498 141.825C57.7174 143.275 58.8784 144.207 60.3534 145.282C61.5004 146.118 64.7924 148.431 64.8405 148.436C64.8546 148.436 65.7847 147.814 66.9075 147.052ZM72.8693 122.889C74.7235 121.659 76.7441 120.188 77.8046 119.297C78.9584 118.328 81.1627 116.223 82.2524 115.051C85.5251 111.531 88.9283 106.859 91.2245 102.734C92.5608 100.334 95.3611 94.4965 95.2364 94.3714C95.2165 94.352 94.9373 94.4484 94.616 94.5861C92.5517 95.4727 91.3997 95.8462 87.3198 96.9516C85.7694 97.3716 84.915 97.6398 84.8471 97.7281C84.79 97.8019 84.352 98.5579 83.8738 99.4074C82.4078 102.012 81.7717 102.881 79.4079 105.513C78.9436 106.03 78.55 106.439 78.5333 106.422C78.4819 106.371 78.7734 95.9655 78.8281 95.9018C78.8564 95.869 79.6949 95.6855 80.6913 95.4945C86.102 94.4572 88.8557 93.7603 92.3735 92.538C93.5648 92.1242 96.6845 90.957 96.7176 90.9128C96.7661 90.8481 97.3501 88.4618 97.6142 87.2488C98.7638 81.9699 99.1724 78.2427 99.603 69.1099C99.6482 68.1514 99.7064 65.0577 99.7324 62.2349L99.7796 57.1023L99.2747 57.2936C98.173 57.7107 94.0818 59.3831 92.2303 60.1733C88.0499 61.9572 85.6701 63.2936 81.6739 66.1016C78.2396 68.5147 73.3984 72.8327 70.7529 75.8426L69.9871 76.714V80.3377V83.9616H70.2625C70.6275 83.9616 73.4213 83.601 74.5692 83.4058C75.6498 83.222 77.0759 82.8368 78.4363 82.3615L79.4234 82.0165L79.4449 80.5367L79.4663 79.057L81.34 77.6803C82.3705 76.9233 83.5567 76.066 83.9759 75.7754C84.64 75.3151 84.8192 75.1374 85.3672 74.3963C85.7132 73.9284 86.123 73.3496 86.2779 73.1099C86.8724 72.1903 88.7653 68.6917 89.8993 66.4168C90.5507 65.1098 91.0627 64.1065 91.0371 64.1872C91.0114 64.2682 90.6528 65.4085 90.2401 66.7219C89.8274 68.0353 89.1948 70.0068 88.8342 71.103L88.1786 73.0962L88.5784 72.8614C89.1524 72.5243 91.6066 71.2881 91.702 71.2881C91.786 71.2881 91.7563 72.0304 91.6163 73.4179C91.4678 74.8899 91.1647 75.9844 90.4701 77.5558C89.7449 79.1965 89.2384 79.9108 88.0793 80.9273C87.1826 81.7136 86.3861 82.2344 84.8928 83.0106L83.6502 83.6566L83.2031 84.4625C81.9812 86.665 80.2088 89.7374 79.8463 90.2812C79.3437 91.0354 77.2367 93.874 77.2039 93.8411C77.1908 93.8277 78.0312 91.7716 79.0716 89.2715C80.1119 86.7714 80.9632 84.7015 80.9632 84.6716C80.9632 84.6419 80.5456 84.7198 80.0353 84.8444C76.8738 85.6181 73.6015 86.1558 70.678 86.3823L69.9871 86.4357V105.596V124.757L70.5201 124.426C70.8132 124.243 71.8704 123.552 72.8693 122.889ZM68.013 105.551V86.4267L67.6379 86.3744C65.6652 86.0999 62.5857 85.5061 60.4718 84.9927C57.9719 84.3854 55.0654 83.2968 51.5978 81.6691C50.843 81.3148 50.2158 81.0351 50.2041 81.0475C50.1806 81.0722 50.1698 81.0014 50.6829 84.1594C51.2694 87.7685 51.7147 89.5596 52.6741 92.1689L53.1218 93.3863L54.0439 93.777C54.5511 93.9918 55.7429 94.4425 56.6924 94.7787C57.6419 95.1148 58.599 95.4691 58.8193 95.5661L59.2199 95.7424L59.3237 101.023C59.3809 103.927 59.412 106.319 59.3929 106.338C59.3475 106.383 57.8366 104.432 56.7867 102.972C53.4706 98.3595 52.166 95.9197 50.6815 91.5534C49.262 87.3786 48.7594 84.2012 47.9911 74.5419C47.8371 72.6067 47.7218 70.9398 47.7349 70.8376C47.757 70.6641 47.847 70.7087 49.1009 71.5139C52.4357 73.6552 54.3294 75.0792 57.2702 77.6568C58.8802 79.0679 58.6852 78.6863 58.8661 80.7796C58.9627 81.8964 58.9677 81.9163 59.1817 82.0273C59.548 82.2174 61.922 82.9851 62.8217 83.2045C64.1902 83.5382 68.0113 84.0812 68.1176 83.9571C68.1343 83.9376 68.1156 82.3178 68.0759 80.3573L68.0039 76.793L67.7586 76.4365C67.256 75.7061 66.026 74.2287 65.165 73.3211C62.6296 70.649 57.6729 66.7416 53.8682 64.4156C50.7247 62.494 46.1232 60.2711 41.3193 58.3539C38.7241 57.3182 38.904 57.3711 38.8549 57.6286C38.7973 57.931 38.9331 67.2478 39.031 69.7037C39.5049 81.5981 39.7657 84.3596 40.8116 88.5555C42.2396 94.284 44.5929 99.3866 48.6291 105.506C52.1292 110.813 56.4192 115.764 60.4324 119.129C62.1552 120.574 67.7051 124.664 67.9538 124.673C67.9864 124.673 68.013 116.069 68.013 105.551ZM69.7339 73.2724C71.8713 70.4688 73.4503 68.8674 76.4038 66.5079C80.3986 63.3165 84.4146 60.7478 88.8671 58.5358C91.0293 57.4617 92.4854 56.845 97.1904 55.0102C109.105 50.3639 111.257 49.3941 114.512 47.2022C115.353 46.6358 116.974 45.4429 116.944 45.4126C116.935 45.4024 116.182 45.3213 115.271 45.2315C108.826 44.5929 105 43.8052 101.813 42.4607C100.357 41.846 98.102 40.6814 97.1066 40.0293C96.9526 39.9288 96.9018 39.9852 96.1591 41.0881C94.6213 43.3716 92.5544 46.0659 90.8563 48.0007C88.671 50.4905 85.5635 53.1714 82.2661 55.4117C81.7015 55.7953 81.2959 56.0402 81.3648 55.956C81.4337 55.8718 81.9677 55.2503 82.5517 54.575C86.6628 49.8211 89.1554 46.6798 90.3781 44.7119C93.1497 40.2511 95.2065 35.1382 95.9694 30.8123C96.1893 29.5659 96.2724 26.6694 96.127 25.3197C96.0168 24.2964 95.714 22.5775 95.4829 21.6636C94.7052 18.588 93.2311 15.3984 91.6337 13.3347C90.9092 12.3986 89.6149 11.1684 89.3547 11.1684C89.3095 11.1684 89.1202 11.4268 88.9341 11.7427C87.5259 14.1325 85.9432 16.069 83.7716 18.0595C83.225 18.5606 82.7916 19.0061 82.8085 19.0497C82.8254 19.0928 83.105 19.5093 83.4299 19.9742C84.6148 21.6701 85.0984 22.6687 85.537 24.3257C85.9935 26.0506 86.1604 27.7421 86.0206 29.2281C85.8651 30.8824 85.4493 32.8776 84.9048 34.5827L84.6701 35.3176L83.9024 34.9978C80.5142 33.5859 76.7264 30.905 70.3536 25.4083L69.0224 24.2602L67.306 25.7342C61.2898 30.9009 57.6466 33.4878 54.4199 34.8843C53.9578 35.0843 53.5247 35.248 53.4574 35.248C53.3196 35.248 53.0763 34.5182 52.652 32.8321C51.843 29.6177 51.7842 27.1323 52.4554 24.5212C52.9113 22.7475 53.428 21.6729 54.6988 19.8552L55.2985 18.9974L54.845 18.5952C53.9461 17.7979 51.8461 15.6279 51.2605 14.8913C50.5585 14.0081 49.826 12.9386 49.1863 11.8629L48.7279 11.0921L48.3689 11.348C47.8405 11.7248 46.8572 12.7334 46.3169 13.4526C44.1992 16.2717 42.6457 20.2642 42.0193 24.4975C41.816 25.8711 41.7755 28.7399 41.9425 29.941C42.6815 35.2577 45.6184 42.1509 49.1577 46.8753C50.5749 48.7671 53.9868 52.8865 56.3181 55.5205C56.6049 55.8444 56.7862 56.079 56.721 56.0418C56.3239 55.8149 54.7609 54.7142 53.6683 53.892C48.7875 50.2194 45.7803 46.8747 41.1232 39.9393C41.115 39.9269 40.7216 40.1523 40.2485 40.4392C38.633 41.4187 36.1593 42.5646 34.2951 43.1971C32.0135 43.9712 28.7537 44.5769 24.2271 45.0677C23.011 45.1997 21.8033 45.3343 21.5431 45.367L21.0702 45.4265L21.9394 46.0693C23.1888 46.9936 24.9361 48.134 26.1222 48.7993C28.0705 49.8923 30.8534 51.0866 37.7361 53.7839C44.5903 56.4699 45.5539 56.856 46.9689 57.4842C51.9094 59.6771 57.2494 62.9593 61.6168 66.4877C64.7487 69.0178 66.0494 70.3317 68.2708 73.209C68.666 73.7209 69.0095 74.1379 69.0341 74.1357C69.0588 74.1357 69.3737 73.7449 69.7339 73.2724Z" fill="white"/>
<path d="M89.5094 73.8276C88.9201 74.0504 87.8548 74.6583 86.5626 75.4872C86.6198 75.746 86.6753 76.0779 86.6775 76.4066C86.6816 77.0249 86.5842 77.5581 85.8616 78.0553C85.2116 78.5027 84.0507 78.3214 83.4389 77.6132C82.7706 78.0911 82.093 78.5889 81.4261 79.0952V82.5685C82.8227 82.2348 85.7246 81.115 87.2398 79.5075C88.4449 78.2291 89.4486 74.9224 89.5094 73.8276Z" fill="white"/>
</svg>
