<svg width="142" height="74" viewBox="0 0 142 74" fill="none" xmlns="http://www.w3.org/2000/svg">
<path d="M27.5628 13.614C27.5628 13.6405 27.5898 13.6405 27.5898 13.667C27.6168 13.7457 27.6701 13.8774 27.751 14.0355C28.1267 14.9573 28.9589 16.8266 29.9246 18.5385C30.4614 19.4867 30.9983 20.2504 31.5081 20.8293C31.1055 21.3825 30.5417 22.3301 30.247 23.5417C29.9516 24.7791 30.0858 26.4122 30.6226 27.9659C30.8371 28.6243 31.1325 29.2298 31.4811 29.783V29.8095C31.4541 29.8624 31.4541 29.9147 31.4541 29.9676C31.0515 33.0486 32.3936 36.0508 35.0507 37.9995C35.4803 38.3158 35.9092 38.5785 36.3658 38.8161C36.7415 39.9748 37.5467 41.0547 38.7006 41.95C39.4789 42.5554 40.3643 43.0299 41.3038 43.372C41.3038 43.372 41.3038 43.3985 41.3308 43.3985C42.3235 44.794 43.8537 45.7945 45.7589 46.3213C46.2417 46.4529 46.7253 46.5581 47.2082 46.6111L47.2884 46.6898C48.2009 47.5586 49.4087 48.2171 50.8041 48.6121C50.5626 50.4027 50.8041 51.7718 51.1797 52.773H102.843C102.87 51.1141 102.413 49.4551 101.474 47.9537C101.447 47.9272 101.42 47.875 101.394 47.8485C101.716 45.5047 101.179 43.1609 99.8102 41.1864C98.3609 39.0537 96.1333 37.6052 93.5571 37.1049C93.2887 37.052 93.0203 37.0262 92.7519 36.9732H92.6447C90.0145 34.4713 87.2231 33.1809 86.2574 32.7866L86.3377 32.3916C86.3646 32.3916 86.4179 32.3651 86.4449 32.3651C89.2362 31.1799 90.927 29.1525 91.2756 26.493C91.544 24.4126 90.9532 22.0953 89.7724 20.4893C89.7724 20.4629 89.7724 20.4364 89.7993 20.4106C90.0947 17.593 89.6381 15.1176 88.5112 13.0901C87.5718 11.4312 86.1765 10.1143 84.539 9.37721H84.512C84.0554 7.87645 82.0963 6.71779 79.9767 6.77005C78.3129 6.823 76.5143 7.58661 75.817 8.82401C73.294 9.7193 69.3757 12.0366 68.1949 17.8829C66.4502 19.1732 65.2963 21.069 65.0279 23.1494C64.7325 25.4668 65.5107 27.7576 67.1212 29.4959C65.5107 29.4959 62.9075 29.6276 59.8478 30.2331C59.8208 30.2331 59.7938 30.2596 59.7675 30.2596C57.4058 28.6271 54.373 27.9952 51.6356 28.7059C51.5284 28.7323 51.4211 28.7846 51.3402 28.8375C50.5889 28.6007 49.7567 28.4425 48.8442 28.3373H48.683C48.2804 27.0734 47.6094 25.9412 46.6699 25.0459C46.616 24.993 46.5087 24.9143 46.5087 24.9143C46.3745 23.9925 46.1061 22.992 45.9989 22.6499C45.7305 21.7546 45.3009 20.7541 44.12 19.569C43.3417 18.8053 42.5365 18.3573 41.9727 18.094C42.0799 17.8041 42.1609 17.5408 42.1871 17.3833C42.1871 17.3304 42.2141 17.2516 42.2141 17.1987C42.2141 17.1722 42.5095 14.3546 42.8582 12.6693V12.6163C43.7976 6.87595 43.7976 6.79652 43.7976 6.71779V6.69132C43.8516 6.16459 43.6634 5.66434 43.2878 5.26929C42.8312 4.79552 42.1609 4.50568 41.4089 4.50568C40.3622 4.50568 39.4228 5.03241 38.8327 5.95418C38.484 6.48091 38.2426 7.13931 38.0544 7.69182C37.088 5.84828 35.7999 3.39927 34.8874 1.63516C34.8604 1.60868 34.8604 1.58221 34.8335 1.55643C34.5111 1.0297 33.7868 0.424242 32.7671 0.424242C32.4717 0.424242 32.15 0.477194 31.8546 0.5824C31.398 0.21383 30.8619 0.00341797 30.2711 0.00341797C29.9757 0.00341797 29.681 0.0563694 29.3856 0.161575C28.339 0.503669 27.7482 1.39897 27.7482 2.4789C26.9429 2.76873 26.3791 3.40067 26.2449 4.21654C26.1377 4.76974 26.2449 5.24352 26.2989 5.4804C26.2989 5.50688 26.3259 5.55913 26.3529 5.63856C26.3259 5.66504 26.2989 5.71729 26.2726 5.74377C25.6839 6.58333 25.3886 8.21576 27.5628 13.614Z" fill="black"/>
<path d="M67.4975 31.0725C67.4975 31.0725 68.2488 31.1255 68.7054 31.283C69.4567 31.5728 70.9869 32.9948 71.7914 33.1265C71.9256 33.153 72.3013 33.0478 71.8987 32.7844C71.7914 32.7057 70.852 31.8891 71.2007 31.4411L71.2276 31.4146C71.3618 31.23 71.523 31.2042 71.6842 31.23C72.8651 31.5198 73.8578 31.678 74.2072 31.7303C74.4216 31.7567 74.5558 31.7567 74.6638 31.7038C74.744 31.6251 74.6907 31.5721 74.4493 31.5192C72.6244 31.0454 70.6113 30.2553 69.189 29.2283C67.2838 27.8063 66.2904 25.5419 66.5858 23.3033C66.8002 21.6444 67.6864 20.1959 69.0548 19.1689C69.5916 18.7739 70.4771 18.4841 70.7185 18.4053C71.3895 18.1684 70.2889 18.0103 70.2086 17.9838C69.9402 17.9309 69.9133 17.6675 70.1547 16.7987C71.4158 12.796 74.2342 11.0318 76.5419 10.2682C76.9446 10.1365 77.5886 9.97839 77.9912 9.89966C78.6353 9.79445 78.3939 9.53109 77.6689 9.42588C77.6689 9.42588 77.4274 9.3994 77.5346 9.24125C77.5616 9.21477 77.6958 9.05661 77.9103 8.92493C78.4471 8.60862 79.1984 8.34595 80.0306 8.31947C81.5339 8.293 82.822 9.10957 82.9562 9.8467C82.9562 9.8467 83.0101 10.0049 82.822 10.0049C82.5266 10.0049 82.3121 10.1365 82.6878 10.3212C82.768 10.3741 83.1706 10.4793 83.7344 10.7427C83.7614 10.7692 83.7884 10.7692 83.8147 10.7956C84.9416 11.3224 88.458 13.4028 88.1895 19.3278C88.1895 19.5124 88.1626 19.6699 88.1626 19.8545C88.1626 20.0127 88.1356 20.1708 88.1086 20.3548C87.7862 20.3283 87.6257 20.46 87.8672 20.6969C88.0284 20.855 88.458 21.3553 88.6994 21.7503C89.4776 23.0407 89.8803 24.726 89.6658 26.2798C89.3974 28.3867 88.0553 29.677 86.714 30.4406C86.1232 30.7827 84.7279 31.4411 83.0101 31.8097C82.6615 31.8884 82.822 32.3364 84.4594 32.3099C84.5936 32.3364 84.889 32.3364 84.9693 32.4946C85.1575 32.8367 84.8351 33.5215 84.1108 33.9166C83.4937 34.2587 83.9766 34.3381 84.8351 34.1012C85.0765 34.0483 85.7475 34.3116 85.8278 34.3646C87.1968 34.9701 90.6855 36.7349 93.2887 40.1844C95.0866 42.7386 95.7577 44.7403 95.1939 46.0042C94.657 47.2158 93.0203 47.4526 92.9933 47.4526H92.9663C86.6593 48.4267 75.6827 46.7155 68.1409 44.5299C66.7988 44.1348 64.7594 43.4499 63.0687 42.7128C64.7324 39.1581 64.0884 34.6809 61.351 31.6529C61.324 31.6 61.2708 31.5742 61.2438 31.5477C63.9549 31.1255 66.2094 31.0725 67.4975 31.0725Z" fill="white"/>
<path d="M98.4149 42.1067C99.6227 43.8973 100.052 46.0307 99.6497 48.1104C99.3011 49.8746 98.3346 51.4812 96.9656 52.6399C96.9926 51.1649 96.7511 49.4537 95.6505 48.1104C96.0801 47.7683 96.4827 47.3203 96.7774 46.7149C97.6096 44.8713 96.9116 42.3701 94.711 39.2892C94.711 39.2892 94.711 39.2627 94.6841 39.2627C94.6301 39.2097 94.5768 39.131 94.5499 39.078C96.1071 39.6577 97.4492 40.7105 98.4149 42.1067ZM60.1439 32.7845C62.6668 35.5756 63.0957 39.8152 61.1636 42.8961C58.99 46.3191 55.098 48.031 51.4751 47.1357C50.9383 47.004 50.4554 46.8194 49.9988 46.609C50.3475 46.556 50.6969 46.4773 51.0185 46.3986C54.5882 45.4503 57.2446 42.2119 57.6472 38.3667C57.8886 35.9442 57.1906 33.4952 55.7151 31.6781C55.2052 31.0462 54.5882 30.493 53.9171 30.0457C56.1986 30.0199 58.5604 31.0204 60.1439 32.7845Z" fill="white"/>
<path d="M54.4006 32.6528C55.6085 34.1535 56.1716 36.1552 55.9841 38.1562C55.6618 41.3424 53.4882 44.0025 50.5626 44.7919C48.1206 45.4503 45.7589 44.8706 44.1484 43.8436C47.691 43.7649 51.0994 41.3946 52.2533 37.8922C52.8171 36.1545 52.7902 34.2315 52.1461 32.5469C51.8507 31.7568 51.4218 31.0461 50.9113 30.3877C52.4145 30.8622 53.5421 31.5993 54.4006 32.6528Z" fill="white"/>
<path d="M48.8449 32.7579C48.9791 32.0995 49.0331 31.4411 49.0061 30.7827C50.7508 32.4152 51.4481 34.9958 50.6436 37.3926C49.5699 40.6839 45.974 42.7908 42.6459 42.0537C41.2505 41.7374 39.6131 40.895 38.6204 39.6312C39.2112 39.7629 39.8282 39.8158 40.4453 39.8158C41.5992 39.8158 42.7531 39.5789 43.8537 39.1309C46.4299 38.051 48.2818 35.6549 48.8449 32.7579Z" fill="white"/>
<path d="M46.3759 27.3333C47.2614 28.7818 47.5838 30.6246 47.2344 32.4681C46.7779 34.8384 45.2753 36.7865 43.2352 37.656C40.9004 38.6565 38.2163 38.3144 36.0427 36.7077C34.325 35.4439 33.2783 33.6533 33.0909 31.731C33.2521 31.8892 33.4395 32.0208 33.6277 32.1525C34.9428 33.0743 36.5263 33.5746 38.244 33.5746C39.4249 33.5746 40.2834 33.3377 40.4446 33.3112C43.4774 32.4688 44.9799 30.6776 45.6779 29.335C46.0273 28.5713 46.2417 27.8865 46.3759 27.3333Z" fill="white"/>
<path d="M27.6701 6.50389C27.6971 6.50389 27.724 6.47741 27.724 6.45094C27.778 6.39798 27.8583 6.37221 27.9385 6.34573H28.2339C28.2879 6.34573 28.3411 6.37221 28.3951 6.37221C28.8779 6.53036 29.2273 7.13582 29.3345 7.97886C29.6569 10.3491 30.7838 11.9286 30.8378 12.008C30.918 12.1133 31.026 12.1662 31.1332 12.1662C31.2134 12.1662 31.2674 12.1397 31.3476 12.0875C31.5088 11.9823 31.5358 11.7454 31.4279 11.5872C31.4279 11.5607 30.3542 10.0865 30.0588 7.87435C29.8976 6.76865 29.3878 5.97855 28.6365 5.71519C28.4483 5.66224 28.2609 5.60998 28.0997 5.63646C27.9925 5.42605 27.9115 5.18846 27.8852 5.08326C27.805 4.76694 27.6708 4.18796 28.3681 3.95107C28.4221 3.9246 28.4483 3.9246 28.5023 3.9246H28.5825C29.0924 3.87165 29.7364 4.08276 30.3805 6.3736C30.9706 8.48051 32.3396 10.5345 32.4199 10.6132C32.5001 10.7184 32.608 10.7714 32.7153 10.7714C32.7955 10.7714 32.8495 10.7449 32.9034 10.7184C33.0646 10.6132 33.1179 10.4021 33.0107 10.2182C33.0107 10.1917 31.6416 8.16419 31.0785 6.18897C30.7831 5.21494 30.4075 4.13501 29.7364 3.58181C29.6292 3.34492 29.522 3.08156 29.495 2.97635C29.3878 2.63426 29.2536 1.89642 29.9246 1.68601C30.0588 1.63306 30.166 1.63306 30.2733 1.63306C30.7831 1.63306 31.0515 2.08105 31.1857 2.39667C31.2127 2.44962 31.2397 2.50188 31.2397 2.55483L34.1915 9.50679C34.2185 9.55974 34.2455 9.612 34.2718 9.63847C34.379 9.7172 34.4862 9.74368 34.6204 9.69142C34.7816 9.61269 34.8619 9.42806 34.8086 9.2699L31.937 2.52835C31.991 2.39667 32.0982 2.29147 32.2594 2.18626C32.4476 2.10753 32.608 2.05458 32.7422 2.05458C33.1719 2.05458 33.3863 2.42315 33.3863 2.42315C33.3863 2.42315 37.2243 9.79663 37.9486 11.0605C37.6532 11.5343 37.4118 12.0087 37.3848 12.1404C37.3308 12.3251 37.4651 12.509 37.546 12.3251C37.7604 12.0087 38.0558 11.6402 38.3243 11.351C38.3243 11.351 38.3512 11.3246 38.3512 11.2981C38.5394 10.9818 39.1025 9.50749 39.3177 9.05949C39.4789 8.37461 39.7743 7.47931 40.1499 6.90033C40.4723 6.40007 40.9282 6.21544 41.3308 6.21544C41.7604 6.21544 42.109 6.42585 42.0821 6.66344C42.0821 6.76865 41.1426 12.4567 41.1426 12.4567C40.9012 13.6419 40.686 15.353 40.5518 16.3542C40.5518 16.5911 40.5248 16.828 40.4716 17.0649V17.1436C40.4716 17.1436 40.4716 17.1966 40.4446 17.2753C40.2564 18.1441 39.9078 18.8025 39.9078 18.8025L40.2032 20.1716C40.3104 20.7506 40.4446 21.3568 40.4986 21.5407C40.713 22.3043 40.4446 22.7523 40.5788 22.9098C40.767 23.1202 41.2768 22.0932 41.384 21.5665C41.4913 21.1449 41.3301 20.2761 41.1696 19.6707C41.5992 19.8553 42.2163 20.2239 42.8071 20.7764C43.7998 21.7504 44.0952 22.5405 44.2833 23.1466C44.4715 23.7786 44.7932 25.1477 44.8202 25.859C44.8471 26.5962 44.5787 30.4672 39.9085 31.784C39.9085 31.784 39.1842 31.9944 38.1638 31.9944C37.1171 31.9944 35.7481 31.784 34.5139 30.8887C32.2594 29.3085 31.3739 25.859 31.8035 24.0155C32.018 23.1466 32.3936 22.4618 32.689 22.0145C32.9034 22.1461 33.1186 22.2514 33.36 22.3308L33.4942 22.9627C33.5212 23.0414 33.8699 24.7798 34.5679 25.333C34.9705 25.6493 35.6415 25.6751 35.829 25.6751C36.0435 25.6751 36.527 25.6486 36.6073 25.4382C36.6342 25.4117 36.6342 25.3065 36.5533 25.2278C36.5263 25.2013 36.4461 25.149 36.3388 25.0961C36.0165 24.9115 35.3724 24.5958 35.2382 23.9904C35.158 23.6483 34.8896 22.4632 34.7014 21.7783C35.3994 21.2251 35.4796 20.6461 34.5672 20.83C34.0304 20.9352 33.5205 20.6983 33.1179 20.382C31.293 18.8018 29.3608 13.9833 28.9852 13.1402C27.5359 9.13752 27.1872 7.08357 27.6701 6.50389ZM101.152 52.798H99.1392C99.7832 52.0344 100.32 51.1656 100.723 50.2438C101.018 51.0597 101.179 51.9285 101.152 52.798ZM52.3876 48.927C52.7362 48.9535 53.0856 48.98 53.4073 48.98C56.8157 48.98 60.1439 47.2158 62.2635 44.1607C64.0615 44.9508 66.2088 45.6879 67.685 46.1359C71.8447 47.3475 76.5952 48.2951 81.0773 48.8748C83.8957 49.2168 86.4719 49.4015 88.7527 49.4015C90.4434 49.4015 91.9467 49.2963 93.2348 49.1116C93.315 49.1116 93.6644 49.0587 94.0933 48.9012C95.1129 49.9547 95.3281 51.4819 95.2472 52.7987H52.9514C52.5488 52.0079 52.1731 50.7434 52.3876 48.927Z" fill="white"/>
<path d="M74.9585 23.2783C74.9315 23.1467 74.744 23.1467 74.6901 23.1467C74.5289 23.1467 74.3144 23.1996 74.1532 23.2519C73.7236 23.41 73.402 23.9103 73.402 24.2001C73.402 24.2531 73.429 24.2788 73.4559 24.3053C73.4829 24.3318 73.5362 24.3583 73.6171 24.3583C73.6974 24.3583 73.7513 24.3053 73.7513 24.2266C73.7513 24.1479 73.8053 24.0162 73.9125 23.9103C74.0198 23.8051 74.2079 23.6204 74.7448 23.5152C74.8782 23.4887 75.0125 23.41 74.9585 23.2783ZM78.8235 20.2761C78.5011 20.7499 78.1255 21.0662 77.8038 21.0662H77.6966C78.2604 20.7764 78.7163 20.0128 78.7972 19.1175C78.9045 17.9059 78.3144 16.8531 77.4821 16.7737C77.0795 16.7472 76.7039 16.9318 76.3815 17.2739C76.6769 17.2739 76.9453 17.5638 76.9453 17.9588C76.9723 18.3539 76.7309 18.6695 76.4085 18.696C76.1671 18.696 75.9256 18.5113 75.8447 18.2222C75.7907 18.4326 75.7375 18.6437 75.7105 18.8541C75.6302 19.5912 75.8447 20.2761 76.1933 20.7234C76.1394 20.6705 76.0861 20.6447 76.0591 20.5917C75.7907 20.2754 75.6025 19.8017 75.5223 19.2227C75.4953 18.9593 75.4683 18.6959 75.4953 18.4326C75.5493 17.7742 75.9519 15.6937 77.6426 15.8784C78.9307 16.0101 79.2801 16.9318 79.3603 17.7477V17.8529C79.4406 18.643 79.2801 19.1962 79.0919 19.7222C79.038 19.9076 78.9307 20.1187 78.8235 20.2761ZM79.8702 18.4068C79.8972 17.0113 79.709 15.9578 78.6893 15.3259L78.3669 15.1677C77.9373 15.0096 77.4275 14.9831 76.9716 15.1148C76.4348 15.2464 76.0321 15.6415 75.7368 16.0888C75.4414 16.5626 75.2802 17.0893 75.1729 17.6425C75.0657 18.1957 75.0117 18.7482 75.0927 19.3014C75.1729 19.8546 75.3611 20.4601 75.7368 20.9081C75.9249 21.145 76.1664 21.3031 76.4348 21.3818C76.6762 21.4606 76.9176 21.5135 77.1591 21.54C77.1591 21.54 77.5617 21.5929 77.8301 21.5665C78.8505 21.4877 79.8432 19.934 79.8702 18.4068ZM82.822 25.9377C82.4464 26.2276 82.0438 26.4645 81.5872 26.6226C81.1306 26.7543 80.6207 26.7808 80.1379 26.7543C79.655 26.7014 79.1984 26.5962 78.7426 26.4122C78.2597 26.2018 77.8571 25.859 77.4814 25.4904C79.2261 25.912 81.0511 26.1224 82.822 25.9377ZM83.8154 25.1477C82.7688 25.3845 81.6681 25.411 80.5682 25.3058C78.7972 25.1741 77.0256 24.7791 75.3618 24.0942C75.2006 24.0413 75.0664 23.9625 74.9322 23.9096C74.852 23.8831 74.798 23.8308 74.7178 23.8044C74.4763 23.7256 74.2612 23.8831 74.2349 24.1207C74.2349 24.3053 74.3421 24.4105 74.5033 24.4893C74.9329 24.7261 75.4158 24.8843 75.8986 25.0425C76.3013 25.2271 76.5967 25.5957 76.9183 25.8848C77.294 26.2534 77.6966 26.6219 78.1795 26.8853C79.0649 27.3856 80.1926 27.5437 81.1853 27.412C81.7221 27.3333 82.2049 27.1487 82.6615 26.8853C82.9839 26.6749 83.2786 26.4373 83.574 26.2004C83.7622 26.0687 83.9227 25.9106 84.1378 25.8054C84.245 25.7524 85.0773 25.4103 85.4799 25.1734C85.4799 25.3316 85.4799 25.4633 85.5871 25.4633C85.6943 25.4898 85.8016 25.2786 85.8285 25.1212C85.8825 24.9366 85.8285 24.7791 85.7746 24.6732C85.7206 24.568 85.5331 24.4098 85.372 24.3833C85.1838 24.3569 85.1575 24.515 85.2108 24.568L85.291 24.6467C85.237 24.6732 85.1568 24.7254 85.1028 24.7519C84.6739 24.9108 84.2443 25.0425 83.8154 25.1477ZM85.962 19.7759C85.9081 20.0392 85.8278 20.3026 85.7206 20.5395C85.5062 21.0662 85.1838 21.4877 84.8621 21.7246C84.7279 21.8298 84.5667 21.8828 84.3792 21.9093C84.9161 21.5929 85.3457 20.8558 85.4259 19.987C85.5331 18.7754 84.9693 17.7226 84.1378 17.6432C83.7352 17.6167 83.3596 17.8013 83.0642 18.1434C83.3596 18.1434 83.601 18.4333 83.628 18.8283C83.655 19.2234 83.4135 19.5655 83.1181 19.5655C82.8767 19.5919 82.6615 19.3808 82.5813 19.0917C82.5273 19.3021 82.4741 19.5132 82.4471 19.7236C82.3669 20.5402 82.6083 21.2773 83.0109 21.6989C82.7695 21.5407 82.528 21.1986 82.3938 20.7506C82.3399 20.5402 82.2866 20.3291 82.2596 20.1187C82.2057 19.5655 82.2057 19.013 82.4741 18.2493C82.4741 18.2229 82.5011 18.1706 82.5011 18.1441C82.7965 17.3805 83.3596 16.5904 84.5944 16.7751C86.2574 17.0377 86.0693 19.1175 85.962 19.7759ZM86.3647 17.485C86.2304 16.9848 85.9351 16.511 85.4792 16.2476C85.1035 16.0372 84.6207 15.9313 84.1641 15.9578C84.0299 15.9578 83.9227 15.9843 83.8154 16.0365C82.6885 16.3786 82.2589 17.3534 81.9103 18.696C81.5346 20.1709 82.0445 21.9086 83.0109 22.1984C83.2523 22.2771 83.628 22.3301 83.628 22.3301C83.8694 22.383 84.1108 22.383 84.3523 22.383C84.6207 22.3566 84.8891 22.2778 85.1305 22.0932C85.5871 21.7511 85.9358 21.2244 86.1502 20.7241C86.3647 20.1974 86.4726 19.6707 86.4989 19.1175C86.5528 18.565 86.5258 18.0118 86.3647 17.485Z" fill="black"/>
<path d="M7.86351 52.7981L6.62866 56.0894H140.765L142 52.7981H7.86351Z" fill="#FCE500"/>
<path d="M133.653 60.4873L130.245 69.5461C130.299 68.6244 130.486 65.0167 130.593 62.9627C130.647 62.1204 130.459 61.462 130.029 61.014C129.52 60.4873 128.849 60.4873 128.849 60.4873H121.28L116.342 73.7063H121.844L125.36 64.3583L124.93 73.7063H134.163L139.128 60.4873H133.653ZM112.451 73.7063L117.416 60.4873H110.895L105.93 73.7063H112.451ZM105.098 69.3085H98.7103L102.011 60.4873H95.6775L90.7125 73.7063H103.461L105.098 69.3085ZM90.7395 63.9632L92.0546 60.5137H78.4748L73.5099 73.7063H87.2508L88.5929 70.1516H80.9978L81.5616 68.6766H88.6469L89.8547 65.4375H82.7695L83.3063 63.9625H90.7395V63.9632ZM69.8323 73.7063L74.7973 60.4873H68.5975L66.7995 65.2536H63.5253L65.3233 60.4873H59.0965L54.1585 73.7063H60.3583L62.049 69.2298H65.3233L63.6325 73.7063H69.8323ZM53.7836 65.3323L55.7427 60.6977C52.3613 59.8811 48.9529 60.2762 47.1812 60.6189C43.2359 61.409 37.8684 64.2531 37.9486 69.4402C37.9756 72.4424 41.6794 74.1013 45.8924 73.9961C48.2541 73.9432 50.5357 73.4959 50.8041 73.4694L52.3876 69.4667C50.3212 69.783 48.3081 70.2833 46.7516 69.6513C43.9332 68.5456 45.6779 65.6751 47.6641 64.7798C48.5495 64.3848 49.7304 64.0162 51.1797 64.0427C51.7705 64.042 53.2198 64.0684 53.7836 65.3323ZM33.1448 73.7063L38.0828 60.4873H31.5613L26.5964 73.7063H33.1448ZM22.8663 73.7063L27.8312 60.4873H18.6256L13.8751 67.5974C13.8751 67.5974 14.1705 63.8845 14.2508 62.9892C14.3048 62.3043 14.2238 60.4873 12.5331 60.4873H4.96495L0 73.7063H5.90439L9.501 64.1472L8.74972 73.7063H14.0101L20.4513 64.3318L16.9356 73.7063H22.8663Z" fill="white"/>
</svg>
