<svg width="84" height="86" viewBox="0 0 84 86" fill="none" xmlns="http://www.w3.org/2000/svg">
<path d="M77.662 42.6427C82.2346 38.6334 84.0106 31.9473 81.575 25.9872C79.1394 20.0283 73.2218 16.5727 67.1927 17.0165C67.6301 10.9025 64.2205 4.90269 58.3416 2.43422C52.4644 -0.0354584 45.8686 1.76388 41.914 6.39973C37.9595 1.76388 31.3653 -0.0354584 25.4861 2.43422C19.6072 4.90309 16.1988 10.9029 16.6362 17.0157C10.6063 16.5731 4.68833 20.0287 2.25312 25.9888C-0.181691 31.9485 1.59232 38.6338 6.16496 42.6431C1.59232 46.6535 -0.182482 53.34 2.25312 59.3001C4.68715 65.2574 10.602 68.7134 16.6307 68.272C16.1941 74.3868 19.6025 80.3894 25.4845 82.8599C31.3653 85.3292 37.9615 83.5286 41.918 78.8908C45.8725 83.5238 52.466 85.3208 58.3424 82.8535C64.2201 80.3842 67.6289 74.3848 67.1923 68.2724C73.2218 68.715 79.1402 65.259 81.5758 59.2993C84.011 53.3384 82.235 46.6535 77.662 42.6427Z" fill="#CE1141"/>
<path d="M75.1176 42.6428C79.4383 38.9475 81.1289 32.6947 78.8554 27.1295C76.582 21.5643 71.0243 18.3546 65.3922 18.8397C65.8707 13.1298 62.7043 7.49681 57.2154 5.19151C51.7261 2.88661 45.5582 4.60055 41.9145 8.98102C38.2695 4.59935 32.1024 2.88581 26.6127 5.19151C21.1238 7.49681 17.9574 13.1306 18.4359 18.8405C12.8039 18.3554 7.24693 21.5655 4.97228 27.1291C2.69881 32.6951 4.38898 38.9495 8.7109 42.6424C4.39017 46.3381 2.69881 52.5909 4.97228 58.1573C7.24693 63.7208 12.8046 66.9318 18.4359 66.4471C17.9574 72.157 21.1238 77.7908 26.6127 80.0961C32.1024 82.4014 38.2703 80.6875 41.9145 76.3058C45.5582 80.6863 51.7261 82.4014 57.2166 80.0961C62.7043 77.79 65.8719 72.1558 65.3934 66.4471C71.0254 66.931 76.582 63.7197 78.8554 58.1561C81.1289 52.5917 79.4391 46.3385 75.1176 42.6428Z" fill="white"/>
<path d="M74.0143 42.6427C77.66 38.8873 78.9598 33.1316 76.8509 27.9706C74.7423 22.8095 69.8102 19.6711 64.6115 19.6298C64.5708 14.3613 61.4752 9.361 56.3853 7.22368C51.2946 5.08557 45.6187 6.403 41.9144 10.0991C38.211 6.403 32.5343 5.08557 27.4428 7.22368C22.3501 9.3618 19.2553 14.3617 19.2157 19.631C14.0179 19.6723 9.08617 22.8099 6.978 27.9706C4.86904 33.1324 6.16771 38.8881 9.8142 42.6439C6.1689 46.3997 4.86904 52.1554 6.97681 57.3152C9.08617 62.4763 14.0195 65.6147 19.2169 65.6564C19.2573 70.9257 22.3533 75.9264 27.444 78.0645C32.5342 80.2018 38.2114 78.8848 41.9156 75.1879C45.619 78.884 51.295 80.2018 56.3857 78.0645C61.4768 75.9264 64.5724 70.9257 64.6131 65.6552C69.811 65.6135 74.7419 62.4763 76.8513 57.3152C78.9598 52.1546 77.66 46.3989 74.0143 42.6427Z" fill="#FFF200"/>
<path d="M68.9319 36.4321C68.5115 37.456 69.1894 37.9985 70.1902 37.8353C70.1946 38.5345 68.9003 39.0782 68.0785 39.2674C67.36 39.433 66.369 39.5132 65.9676 38.8701L65.465 38.0622C64.1793 39.0409 61.7722 39.8564 60.4458 38.6003C59.0764 37.3033 59.7075 35.3921 60.0824 34.1785C57.7469 36.0636 55.7858 39.5885 52.3924 38.9976C51.8012 38.8933 51.4425 38.4163 51.0641 38.0057C49.6942 40.2865 49.1786 43.8792 45.9884 44.4549C44.9409 44.6446 43.7806 44.5255 43.1087 43.7309C43.0261 43.2405 43.7213 43.5264 44.0313 43.3917C45.8374 42.6067 46.5729 39.7842 47.331 38.0249C46.0873 38.903 44.1179 39.6727 42.6203 38.7987C42.1675 38.5349 41.7681 38.0282 41.6883 38.0823C40.5798 38.8316 38.6425 39.4931 37.2924 38.7987C36.8246 38.5574 36.6221 38.0474 36.4406 37.594C34.9719 38.4864 32.9835 39.6034 31.2803 38.472C30.4676 37.9315 30.1611 36.8867 30.5265 36.0207L32.8052 30.6051C33.1986 29.6709 31.4768 29.5066 31.1276 30.2936L27.4226 38.6275L23.7243 38.6255L24.3397 37.1052C22.084 38.66 19.9098 39.7072 17.2167 38.67C15.0726 37.8457 13.8316 35.542 13.749 33.341C13.594 29.2043 15.5796 25.4573 19.0054 22.9651C21.1713 21.3895 24.3982 20.4702 26.8354 22.0999C27.7251 22.6953 28.2527 23.7032 28.1772 24.736C28.085 25.9865 27.3491 27.1957 26.2062 27.8119C25.3176 28.2926 23.1308 28.206 22.9342 26.9483C23.9754 26.3461 25.6134 25.3318 25.1151 23.8724C24.9665 23.4346 24.5267 23.2634 24.1506 23.2345C21.9614 23.0634 20.3159 25.3598 19.3688 27.0758C18.0895 29.3935 16.7003 32.633 18.3351 35.2542C19.0089 36.3347 20.3203 36.6153 21.6059 36.3888C23.213 36.1065 25.1298 35.3215 25.8412 33.7343L31.2728 21.6056H34.8876L32.265 27.795C33.2987 27.1183 34.8951 25.9147 36.5102 26.8777C38.0702 27.8091 36.7898 29.7359 36.2729 30.9314L34.595 34.8156C34.4479 35.156 34.3668 35.5769 34.5246 35.9494C34.9699 36.9962 36.5046 36.21 36.8036 35.5236L40.5905 26.818H44.2318L40.5648 35.2257C40.456 35.4771 40.3959 35.8508 40.5371 36.1194C40.7166 36.4606 41.137 36.5468 41.4597 36.4313C42.1059 36.1992 42.7239 34.4692 42.7453 34.4187L46.0248 26.8184H49.7464L46.0466 35.3259C45.9133 35.6302 45.9077 36.0231 46.1154 36.3178C46.2858 36.5624 46.5658 36.6975 46.8426 36.659C47.4639 36.57 48.1156 36.2216 48.394 35.5817L52.2085 26.8188H55.6616L55.4271 27.4875C56.5846 27.0241 58.0802 26.2587 59.2017 27.1884C60.7116 28.4425 59.7767 31.0008 59.3564 32.5456C61.7722 30.9852 63.3141 25.9295 67.6455 26.7783C68.1742 26.8809 68.695 27.3584 68.9323 27.8836L69.3689 26.8184H73.0094C73.0094 26.8192 70.2417 33.2412 68.9319 36.4321Z" fill="#CE1141"/>
<path d="M65.3384 36.1916C65.1272 36.6787 64.4736 36.9104 63.9132 36.6594C63.7463 36.5845 63.5502 36.3908 63.549 36.1916C63.5371 34.4756 64.4051 32.9284 65.1435 31.443C65.5417 30.6388 66.0455 29.4641 67.0586 29.359C67.8365 29.2781 68.0445 29.9688 67.7863 30.5638L65.3384 36.1916Z" fill="#FFF200"/>
<path d="M52.952 36.5876C52.6016 36.7796 52.0859 36.6028 52.0005 36.2195C51.9238 35.8751 52.1077 35.4879 52.2528 35.1567L54.5037 29.9968C54.8296 29.2495 56.0919 29.1609 56.1955 29.8268C56.443 31.4149 54.3463 35.8234 52.952 36.5876Z" fill="#FFF200"/>
<path d="M70.2606 46.1703C68.96 46.7801 68.2157 48.1581 68.3447 49.615C68.6064 52.5514 69.4136 56.2142 66.8625 58.4313C65.3989 59.7034 63.4624 60.2559 61.5784 59.7644C60.695 59.533 59.789 58.754 59.6624 57.7926C59.5782 57.1519 59.7071 56.5185 60.0532 56.0506C60.4118 55.5659 60.9291 55.2311 61.5124 55.1882C61.7394 55.1718 62.0866 55.2043 62.3322 55.4132C61.841 55.8846 61.3878 56.6909 61.703 57.3825C61.8794 57.767 62.2626 57.9718 62.6683 57.9502C63.0602 57.9293 63.4556 57.7613 63.689 57.4246C64.68 55.9933 64.502 54.026 64.9738 52.3657C65.2846 51.274 65.6809 50.2328 66.066 49.19C66.1155 49.0549 66.0522 48.9018 65.9245 48.8781C65.4994 48.7995 65.1324 49.2646 64.9046 49.5172L58.0676 57.0846C56.5985 58.7107 54.7734 60.2346 52.4624 59.7644C51.7103 59.6108 51.0914 59.0551 50.7699 58.3182L48.6858 62.9272C49.9366 63.5202 52.4498 64.0466 53.8781 64.1665C56.0342 64.3497 58.2321 64.4082 60.3185 64.0161C61.1616 63.859 61.9687 63.5635 62.6956 63.0808C62.5995 63.7756 62.0696 64.5594 61.996 64.6552C58.1091 69.6419 51.4413 68.737 45.9457 67.5599C44.7293 69.0782 43.2974 70.3423 41.6262 71.1181C38.8097 72.4243 35.0608 72.4126 32.4125 70.7789C31.0881 69.9602 30.3193 68.5161 30.4269 66.8943C30.5712 64.7149 32.5287 62.9236 34.3838 62.2729C37.7464 61.0954 41.6281 61.2726 45.0508 62.0087L46.4258 58.9577C45.1113 59.6938 43.2669 60.5778 41.7527 59.7932C41.2378 59.5262 41.0947 58.9846 40.8578 58.5323C39.6275 59.2684 38.349 60.1745 36.7751 59.8353C35.7671 59.618 35.2396 58.9697 35.0529 58.0051C33.598 59.2664 31.673 60.5089 29.7281 59.6661C28.9293 59.3185 28.6386 58.463 28.6386 57.6531C28.6386 56.8998 28.8664 56.2382 29.1697 55.5406L31.5468 50.0833C32.0914 48.8316 30.1018 48.6749 29.6728 49.6587L25.3528 59.5631L21.3449 59.5523L22.243 57.5072C19.8018 59.3029 16.6473 61.4891 13.1617 59.3237C10.1484 57.4534 9.94867 53.2943 10.7835 50.0821C11.8785 45.8788 15.7563 41.9719 19.9984 40.982C21.9511 40.5265 24.2131 40.7126 25.5351 42.3559C26.241 43.2368 26.3992 44.5085 26.1073 45.6034C25.8673 46.5071 25.0428 47.3562 24.1918 47.7447C23.0746 48.2523 20.8312 48.3241 20.5148 46.7649C21.1298 46.6426 21.8024 46.3134 22.3043 45.773C22.7404 45.3063 23.0734 44.6095 22.7934 43.9304C22.5692 43.3867 22.0096 43.0596 21.4093 43.1213C19.1303 43.3574 17.5552 45.5641 16.3625 47.3462C15.1331 49.1832 14.5522 51.3598 14.6142 53.7393C14.6494 55.0748 15.2719 56.4808 16.5579 57.014C19.2039 58.1118 21.8546 56.1545 23.7275 54.1422L29.672 40.6408L33.5913 40.6248L31.0561 46.6382C32.4137 45.7373 34.2383 44.8625 35.7813 45.9723C36.3935 46.4109 36.4971 47.2845 36.2717 47.9853C35.4195 50.6221 34.0528 53.0642 33.0416 55.6393C32.8965 56.0109 32.8293 56.407 33.0416 56.7157C33.2485 57.0168 33.6277 57.1074 33.9919 57.0144C34.5784 56.8641 35.1731 56.4211 35.4187 55.8522L39.7739 45.7694H43.6675L39.6137 55.3414C39.5081 55.5928 39.4899 55.9921 39.6414 56.2206C39.8098 56.474 40.1029 56.6716 40.3686 56.6448C40.7874 56.6019 41.209 56.3902 41.3897 55.9793L45.8374 45.7686H49.8014L45.3169 55.9793C45.1987 56.2511 45.2371 56.5225 45.3596 56.7871C45.4882 57.0621 45.7646 57.1632 46.0454 57.1564C46.6038 57.1435 47.2887 56.994 47.5394 56.4175L52.1836 45.8015H55.789C55.789 45.8015 55.7008 46.3375 55.6628 46.5384C56.7673 45.759 58.3408 44.9591 59.6909 45.773C61.6018 46.9297 60.5253 50.997 60.4158 51.4581C62.7415 50.0592 65.2494 45.0441 69.094 45.5356C69.4049 45.5761 69.9027 45.7265 70.2606 46.1703Z" fill="#CE1141"/>
<path d="M34.2584 69.3031C33.1191 68.6275 32.9843 67.0948 34.2873 66.4537C35.6144 65.801 37.1982 65.9401 38.6484 66.0564C39.8553 66.1534 41.0258 66.4257 42.1576 66.7656C40.5877 69.5148 37.1397 71.0082 34.2584 69.3031Z" fill="#FFF200"/>
<path d="M53.6088 56.2768C53.2573 56.8248 51.7636 57.1211 51.7636 56.2768V55.8093L54.573 49.4162C54.7458 49.0225 55.1626 48.8681 55.5659 48.8208C55.8874 48.7839 56.1821 48.9976 56.3209 49.2462C56.4889 49.5505 56.4506 50.0284 56.3485 50.3519C55.6984 52.4123 54.7106 54.5504 53.6088 56.2768Z" fill="#FFF200"/>
<path d="M47.855 68.574C48.3169 68.574 48.7661 68.6866 49.1975 68.9128C49.631 69.1373 49.9908 69.4805 50.2823 69.9403C50.5717 70.4014 50.7169 70.915 50.7169 71.477C50.7169 72.2757 50.4365 72.9589 49.8765 73.5274C49.315 74.0955 48.6407 74.3801 47.8554 74.3801C47.0649 74.3801 46.3898 74.0963 45.8306 73.5318C45.2707 72.9653 44.9911 72.2801 44.9911 71.477C44.9911 70.917 45.1366 70.407 45.4229 69.9487C45.7108 69.4897 46.0719 69.1469 46.5013 68.9184C46.932 68.6882 47.3828 68.574 47.855 68.574ZM47.8581 69.1437C47.2416 69.1437 46.7054 69.3662 46.2467 69.8128C45.7887 70.2574 45.559 70.8143 45.559 71.477C45.559 72.1225 45.7836 72.6762 46.234 73.1308C46.6836 73.5879 47.225 73.8152 47.8581 73.8152C48.4905 73.8152 49.0326 73.5871 49.4823 73.1268C49.9351 72.6698 50.1605 72.1185 50.1605 71.4774C50.1605 70.8147 49.9307 70.2578 49.4728 69.8132C49.0136 69.3662 48.4754 69.1437 47.8581 69.1437ZM46.5606 73.0298V69.9507H47.1783C47.7976 69.9507 48.1927 69.9592 48.358 69.9796C48.5249 70.0013 48.6775 70.0875 48.8167 70.2394C48.9551 70.3918 49.0243 70.587 49.0243 70.8243C49.0243 71.0545 48.95 71.2465 48.7993 71.3977C48.6475 71.5504 48.4501 71.6458 48.2057 71.6823C48.3125 71.7192 48.4031 71.7741 48.477 71.8471C48.5498 71.9209 48.6743 72.1077 48.8487 72.4076L49.2086 73.029H48.4454L48.1923 72.5303C48.0404 72.228 47.908 72.0263 47.7972 71.9217C47.6857 71.8178 47.5335 71.7645 47.3397 71.7645H47.1787V73.029H46.5606V73.0298ZM47.178 71.2806H47.4279C47.7201 71.2806 47.9178 71.2726 48.0159 71.2589C48.1156 71.2449 48.1986 71.2016 48.267 71.129C48.3351 71.0549 48.3695 70.9643 48.3695 70.856C48.3695 70.7474 48.3319 70.6556 48.2595 70.5842C48.186 70.5128 48.0986 70.4707 47.9946 70.4579C47.8913 70.4447 47.7019 70.4395 47.4279 70.4395H47.178V71.2806Z" fill="#CE1141"/>
<path d="M82.5786 25.5662C80.1237 19.5576 74.3749 15.908 68.3221 15.8687C68.2849 9.73343 64.6847 3.90683 58.7584 1.41631C52.8302 -1.07181 46.2209 0.468126 41.914 4.77924C37.6072 0.468528 30.9979 -1.07141 25.0708 1.41751C19.1426 3.90683 15.5432 9.73343 15.5048 15.8687C9.45237 15.9088 3.70523 19.5584 1.24985 25.567C-1.20513 31.5756 0.314601 38.2762 4.56692 42.6439C0.314601 47.0107 -1.20394 53.7117 1.24985 59.7207C3.70523 65.7298 9.45237 69.3777 15.506 69.4174C15.5432 75.5539 19.143 81.3817 25.0712 83.8707C30.9987 86.3596 37.6091 84.8192 41.9156 80.5077C46.2217 84.8188 52.831 86.3584 58.7588 83.8695C64.6851 81.3805 68.2841 75.5535 68.3225 69.417C74.3753 69.3785 80.1245 65.7298 82.579 59.7203C85.034 53.7105 83.5147 47.0103 79.2624 42.6415C83.5143 38.2754 85.0336 31.5748 82.5786 25.5662ZM80.5733 58.8788C78.1428 64.8257 71.9627 68.0784 65.9482 67.0091C67.0021 73.1067 63.7945 79.3747 57.9284 81.8372C52.0602 84.3005 45.4213 82.1687 41.914 77.1015C38.4072 82.1683 31.7679 84.3 25.9013 81.8372C20.0343 79.3743 16.8276 73.1079 17.8815 67.0103C11.8654 68.0796 5.68448 64.8269 3.25481 58.88C0.824341 52.9307 2.92579 46.1997 7.92591 42.6431C2.92697 39.0873 0.824737 32.3578 3.2552 26.4098C5.68487 20.4617 11.867 17.2094 17.8819 18.2791C16.8256 12.1803 20.0347 5.91385 25.9017 3.45098C31.7683 0.986118 38.4083 3.11742 41.9152 8.18587C45.4225 3.11782 52.0602 0.986118 57.9276 3.45098C63.7957 5.91425 67.0025 12.1803 65.9474 18.2791C71.9615 17.2094 78.144 20.4617 80.5733 26.4086C83.0026 32.3566 80.9003 39.0873 75.9022 42.6427C80.9003 46.2005 83.0026 52.9307 80.5733 58.8788Z" fill="#A69256"/>
</svg>
