<svg width="137" height="137" viewBox="0 0 137 137" fill="none" xmlns="http://www.w3.org/2000/svg">
<g clip-path="url(#clip0_5_85)">
<path d="M21.5908 4.7123C27.7686 3.42618 34.1534 3.46939 40.3985 4.20522C40.3985 10.754 40.3997 17.3016 40.3985 23.8504C37.5327 23.5708 34.6325 23.5085 31.7731 23.8796C28.1841 24.3447 24.5253 25.5457 21.873 28.1065C19.513 30.3369 18.2777 33.5382 18.0083 36.7319C17.6194 41.2054 18.6411 45.6661 20.0328 49.8918C21.2604 53.5608 22.8414 57.104 24.5914 60.5519C28.8907 68.96 34.1496 76.8394 39.7109 84.457C39.8927 84.7594 40.2447 85.0124 40.2206 85.3962C40.2167 92.2703 40.2218 99.1457 40.218 106.02C28.3519 94.9722 18.2548 81.9521 10.9613 67.4502C7.73453 61.0285 4.86744 54.4034 2.78575 47.5178C1.2302 42.339 0.141067 36.9874 0 31.5684V30.1857C0.0737106 26.6577 0.59731 23.1069 1.8847 19.809C3.28012 16.1679 5.64521 12.9031 8.69404 10.4694C12.4063 7.47645 16.9585 5.69087 21.5908 4.7123Z" fill="white"/>
<path d="M42.1637 4.29175C48.8803 11.0032 55.5905 17.7198 62.3071 24.4313C62.3134 35.3341 62.3109 46.2356 62.3083 57.1384C80.5835 46.5749 98.8675 36.028 117.146 25.4734C114.69 34.6453 112.229 43.8171 109.774 52.9903C93.9568 62.1317 78.1307 71.254 62.3147 80.3979C62.302 97.7364 62.3147 115.076 62.3083 132.415C55.5918 125.643 48.8765 118.87 42.1637 112.093C42.1625 76.1596 42.1625 40.2257 42.1637 4.29175Z" fill="white"/>
<path d="M45.9319 5.07837C53.1517 6.45091 60.1288 8.87701 66.8593 11.7962C76.2663 15.8986 85.2488 20.9592 93.69 26.7925C96.2889 28.5933 98.8344 30.4729 101.316 32.4326C95.7005 35.7089 90.0807 38.9776 84.4647 42.2526C80.5364 39.6372 76.5027 37.1844 72.3978 34.8574C69.7963 33.415 67.1491 32.0564 64.437 30.8364C64.4281 28.6454 64.437 26.4532 64.4319 24.2622C58.2669 17.8672 52.0956 11.4759 45.9319 5.07837Z" fill="white"/>
<path d="M113.962 43.7725C119.008 48.9347 123.583 54.585 127.357 60.7488C130.356 65.662 132.834 70.9107 134.515 76.4224C136.817 83.9079 137.543 91.8889 136.45 99.6514C135.444 108.11 130.517 115.939 123.484 120.702C119.004 123.773 113.697 125.582 108.29 126.006C102.855 126.446 97.3678 125.531 92.2462 123.709C87.1195 121.882 82.3322 119.185 77.9286 116.001C72.7892 112.279 68.1441 107.908 63.902 103.198C63.9032 96.032 63.902 88.8655 63.9032 81.6991C66.0917 80.3507 68.2839 79.0074 70.4762 77.6653C73.4678 81.1259 76.7492 84.3565 80.4246 87.0901C83.6984 89.5099 87.3114 91.5572 91.2562 92.6464C93.8399 93.3644 96.5596 93.6326 99.2284 93.3174C103.346 92.898 107.082 90.4503 109.524 87.1677C111.739 84.1976 112.78 80.4269 112.556 76.7414C112.345 72.8093 110.89 69.0488 108.94 65.6658C107.398 63.0135 105.546 60.5467 103.505 58.2604C106.066 56.7836 108.681 55.3946 111.264 53.9534C112.166 50.5602 113.057 47.1644 113.962 43.7725Z" fill="white"/>
<path d="M64.0748 114.26C69.8725 120.77 75.8215 127.142 81.8403 133.448C79.5985 132.725 77.4851 131.658 75.3678 130.638C71.5018 128.711 67.74 126.578 64.0748 124.295C64.0748 120.95 64.0735 117.605 64.0748 114.26Z" fill="white"/>
</g>
<defs>
<clipPath id="clip0_5_85">
<rect width="137" height="137" fill="white"/>
</clipPath>
</defs>
</svg>
