<svg width="196" height="60" viewBox="0 0 196 60" fill="none" xmlns="http://www.w3.org/2000/svg">
<path d="M0 42.0229V0.870605H7.22888V42.0229H0Z" fill="white"/>
<path d="M25.7333 12.1682C16.4649 12.1682 10.0511 19.2944 10.0511 27.451C10.0511 36.5543 17.0286 42.8255 25.8053 42.8255C34.1349 42.8255 41.3631 36.6697 41.3631 27.4314C41.3631 19.6628 35.3736 12.1682 25.7333 12.1682ZM25.6482 19.1417C30.4986 19.1417 34.0688 22.9173 34.0688 27.4772C34.0688 32.3119 30.1325 35.8389 25.7791 35.8389C20.6351 35.8389 17.3978 31.7618 17.3978 27.4903C17.3978 22.8083 21.0527 19.1417 25.6482 19.1417Z" fill="white"/>
<path d="M59.5257 12.1682C50.2573 12.1682 43.8435 19.2944 43.8435 27.451C43.8435 36.5543 50.821 42.8255 59.5977 42.8255C67.9273 42.8255 75.1556 36.6697 75.1556 27.4314C75.1556 21.9911 72.7996 19.5773 72.7996 19.5773L74.8032 18.8902V13.0233H64.5361C64.5361 13.0233 62.3103 12.1682 59.5257 12.1682ZM59.4406 19.1417C64.291 19.1417 67.8612 22.9173 67.8612 27.4772C67.8612 32.3119 63.9249 35.8389 59.5715 35.8389C54.4275 35.8389 51.1902 31.7618 51.1902 27.4903C51.1902 22.8083 54.8452 19.1417 59.4406 19.1417Z" fill="white"/>
<path d="M67.8101 44.0342C67.8101 48.8689 63.8738 52.422 59.5204 52.422C54.3764 52.422 51.126 48.3057 51.126 44.0342H43.7924C43.7924 53.1375 50.7699 59.4087 59.5466 59.4087C67.8763 59.4087 75.1045 53.2725 75.1045 44.0342H67.8101Z" fill="white"/>
<path d="M78.051 42.0228V13.0234H85.2798V42.0228H78.051Z" fill="white"/>
<path d="M92.2993 42.0227V19.5188H88.4229V13.0233H92.2993V4.11816H99.5282V13.0233H103.509V19.5188H99.5282V42.0227H92.2993Z" fill="white"/>
<path d="M86.4373 4.78695C86.4373 7.4307 84.2941 9.57389 81.6503 9.57389C79.0066 9.57389 76.8634 7.4307 76.8634 4.78695C76.8634 2.14319 79.0066 0 81.6503 0C84.2941 0 86.4373 2.14319 86.4373 4.78695Z" fill="white"/>
<path d="M119.761 12.1487C110.449 12.1487 104.446 19.2786 104.446 27.7131C104.446 36.4291 110.469 42.8453 119.912 42.8453C128.72 42.8453 133.053 37.345 133.053 37.345L128.221 32.5061C128.221 32.5061 124.572 36.4414 120.003 36.4414C116.195 36.4414 113.149 34.3156 112.087 30.4173H134.612V28.4268C134.612 20.4842 130.015 12.1487 119.761 12.1487ZM119.532 18.5132C122.862 18.5132 126.268 20.2948 127.029 24.5504H111.891C112.49 21.559 115.107 18.5132 119.532 18.5132Z" fill="white"/>
<path d="M152.693 42.8488C143.355 42.8488 136.992 35.7362 136.992 27.35C136.992 18.6954 144.183 12.1431 152.663 12.1431C160.862 12.1431 165.058 17.9304 165.058 17.9304L160.015 22.9503C160.015 22.9503 157.094 19.1761 152.629 19.1761C147.681 19.1761 144.297 22.9614 144.297 27.461C144.297 32.212 147.897 35.8571 152.574 35.8571C157.11 35.8571 160.008 32.089 160.008 32.089L165.101 37.1062C165.101 37.1062 160.946 42.8488 152.693 42.8488Z" fill="white"/>
<path d="M167.731 42.0436V0.765625H174.96V15.9313C174.96 15.9313 177.728 12.1431 183.749 12.1431C191.318 12.1431 195.704 17.77 195.704 24.9667V42.0436H188.475V26.0593C188.475 21.2244 185.465 19.2185 182.13 19.2185C178.331 19.2185 174.96 21.3807 174.96 26.4334V42.0436H167.731Z" fill="white"/>
</svg>
