<svg width="224" height="84" viewBox="0 0 224 84" fill="none" xmlns="http://www.w3.org/2000/svg">
<g clip-path="url(#clip0_5_34)">
<path d="M157.388 45.3292V83.3313H148.948L130.714 58.6379V83.3313H122.628V48.8822L120.78 45.3292H131.233L149.302 70.3663V45.3292H157.388Z" fill="#02C8FF"/>
<path d="M73.3489 83.9884C76.1331 84.0041 78.7024 83.5354 81.0615 82.5937C83.4243 81.6501 85.4597 80.3391 87.1778 78.6689C88.8936 76.9978 90.2392 75.0174 91.2153 72.7299C91.9185 71.0835 92.371 69.3477 92.5767 67.5181C92.6582 66.8081 92.7942 63.943 92.6471 62.2141H73.4284L70.0065 69.0655H83.7186C83.1902 71.2275 81.9925 73.0124 80.1328 74.3548C78.2686 75.7012 76.0404 76.3669 73.4447 76.3568C71.7749 76.346 70.216 76.0222 68.7724 75.3837C67.3274 74.7442 66.0723 73.8834 65.0025 72.7946C63.9309 71.7045 63.0947 70.4288 62.4909 68.963C61.8844 67.4975 61.5875 65.9341 61.5967 64.2728C61.6053 62.6135 61.9196 61.0491 62.5379 59.5914C63.1574 58.1333 64.0081 56.8632 65.0915 55.7845C66.1742 54.7042 67.4303 53.8647 68.862 53.2569C70.2932 52.6521 71.8429 52.3552 73.5143 52.3583C75.778 52.3721 77.7773 52.8676 79.5173 53.8508C81.2561 54.835 82.6016 56.2483 83.5572 58.0963L91.1457 54.5618C89.5644 51.4842 87.2316 49.07 84.1418 47.3219C81.0528 45.5723 77.5421 44.6915 73.6107 44.6676C70.8265 44.6531 68.1901 45.1553 65.7018 46.174C63.2109 47.1921 61.0417 48.5847 59.197 50.3665C57.3538 52.1437 55.8845 54.2242 54.7978 56.6007C53.7072 58.9759 53.1585 61.5216 53.1431 64.2252C53.1269 66.935 53.6455 69.4847 54.689 71.8753C55.7377 74.2641 57.1612 76.3568 58.9711 78.1494C60.7781 79.9458 62.914 81.3663 65.3755 82.4087C67.8324 83.4471 70.4935 83.9733 73.3489 83.9884Z" fill="#02C8FF"/>
<path d="M10.2941 45.326H0L1.94239 49.2576V79.4092L0 83.3364H23.626L25.7689 75.8981H10.2941V45.326Z" fill="#02C8FF"/>
<path d="M28.6194 83.3364H51.6496V75.9021H37.0035V67.5657H48.3266L50.378 60.4182H37.0035V52.7305H51.6496V45.326H28.6194V83.3364Z" fill="#02C8FF"/>
<path d="M95.5724 83.3364H118.602V75.9021H103.954V67.5657H115.282L117.329 60.4182H103.954V52.7305H118.602V45.326H95.5724V83.3364Z" fill="#02C8FF"/>
<path d="M110.324 39.3275C113.107 39.343 115.679 38.8751 118.04 37.9307C120.402 36.9868 122.435 35.6773 124.153 34.0065C125.871 32.3391 127.215 30.3562 128.193 28.0697C128.895 26.4247 129.349 24.6857 129.554 22.8579C129.632 22.1482 129.774 19.2821 129.623 17.5523H110.406L106.984 24.4016H120.696C120.166 26.5654 118.969 28.3472 117.109 29.6927C115.245 31.0377 113.016 31.7015 110.42 31.6894C108.75 31.6812 107.194 31.3583 105.749 30.7198C104.305 30.0811 103.047 29.2167 101.979 28.1297C100.908 27.0421 100.073 25.764 99.4651 24.2994C98.8616 22.8339 98.5649 21.2699 98.5728 19.6083C98.5831 17.948 98.8964 16.3865 99.515 14.9287C100.134 13.4684 100.986 12.1989 102.068 11.1199C103.149 10.0403 104.404 9.20207 105.839 8.59488C107.269 7.98792 108.818 7.69003 110.491 7.69468C112.755 7.70697 114.754 8.2034 116.493 9.18757C118.234 10.1706 119.578 11.584 120.531 13.4321L128.121 9.89419C126.54 6.82002 124.209 4.40788 121.118 2.65807C118.029 0.909058 114.518 0.024303 110.588 0.00303119C107.804 -0.0119379 105.167 0.492282 102.678 1.5086C100.186 2.52413 98.0183 3.92099 96.1744 5.70262C94.3297 7.47921 92.8599 9.55904 91.7722 11.9364C90.6829 14.3138 90.1355 16.8571 90.1197 19.5637C90.1039 22.2707 90.6212 24.8213 91.6646 27.2089C92.712 29.5986 94.139 31.6894 95.9458 33.4867C97.7525 35.2806 99.8907 36.7012 102.352 37.742C104.808 38.7887 107.467 39.3152 110.324 39.3275Z" fill="#02C8FF"/>
<path d="M10.2941 0.670469H0L1.94239 4.59944V34.7502L0 38.678H23.626L25.7689 31.2369H10.2941V0.670469Z" fill="#02C8FF"/>
<path d="M28.6194 38.678H51.6496V31.2409H37.0035V22.906H48.3266L50.378 15.7601H37.0035V8.07274H51.6496V0.670469H28.6194V38.678Z" fill="#02C8FF"/>
<path d="M167.514 38.678H190.54V31.2409H175.898V22.906H187.22L189.268 15.7601H175.898V8.07274H190.54V0.670469H167.514V38.678Z" fill="#02C8FF"/>
<path d="M77.4655 0.670426H65.5581L68.0765 5.51614L54.3234 38.6792H62.8898L65.8093 31.2646H81.3012L84.3024 38.6792H93.0355L77.4655 0.670426ZM68.6716 23.9957L73.7003 11.2246L78.5309 23.9957H68.6716Z" fill="#02C8FF"/>
<path d="M212.42 11.1201V28.2129H216.733V22.4348H221.189L222.265 18.6763H216.733V14.9925H223.06V11.1201H212.42Z" fill="#02C8FF"/>
<path d="M201.757 10.7818C196.729 10.7818 192.641 14.7672 192.641 19.6688C192.641 24.5688 196.729 28.5542 201.757 28.5542C206.782 28.5542 210.867 24.5688 210.867 19.6688C210.867 14.7672 206.778 10.7818 201.757 10.7818ZM201.757 24.4304C199.067 24.4304 196.881 22.2924 196.881 19.6688C196.881 17.0425 199.067 14.9057 201.757 14.9057C204.444 14.9057 206.632 17.0425 206.632 19.6688C206.632 22.2924 204.444 24.4304 201.757 24.4304Z" fill="#02C8FF"/>
<path d="M148.201 39.3362C145.749 39.3362 143.558 38.9644 141.628 38.223C139.697 37.4832 138.061 36.4249 136.724 35.0507C135.386 33.6769 134.358 32.0141 133.635 30.0593C132.91 28.1094 132.547 25.9388 132.547 23.5534V0.670344H141.014V23.1213C141.014 25.6898 141.628 27.7133 142.852 29.1967C144.079 30.6812 145.864 31.4198 148.201 31.4198C150.544 31.4198 152.326 30.6812 153.55 29.1967C154.777 27.7133 155.393 25.6898 155.393 23.1213V0.670344H163.858V23.5546C163.858 25.9428 163.495 28.1103 162.771 30.0627C162.048 32.0141 161.015 33.6769 159.682 35.0544C158.345 36.4286 156.708 37.4832 154.777 38.2271C152.844 38.9644 150.653 39.3362 148.201 39.3362Z" fill="#02C8FF"/>
<path d="M213.02 60.7967L207.747 59.8098C205.377 59.3666 204.072 58.0725 204.072 56.162C204.072 53.5609 206.811 52.0058 209.461 52.0058C210.363 52.0058 214.852 52.232 215.778 56.5898L223.04 53.1414C221.97 50.0392 218.76 44.6638 209.41 44.6638C201.865 44.6638 195.728 50.0602 195.728 56.6861C195.728 62.3026 199.588 66.4264 206.055 67.7097L211.331 68.7438C213.936 69.2531 215.489 70.694 215.489 72.6C215.489 75.0665 213.342 76.5644 209.889 76.6023C205.695 76.6429 202.309 73.61 201.787 70.6257L194.805 74.4163C196.406 79.492 201.341 84 209.835 84C215.181 84 218.483 81.9848 220.31 80.2981C222.653 78.1395 223.997 75.1611 223.997 72.1352C223.989 66.4188 219.786 62.0739 213.02 60.7967Z" fill="#02C8FF"/>
<path d="M192.486 56.9313C191.449 54.6185 190.032 52.6151 188.239 50.9172C186.439 49.2199 184.337 47.8849 181.925 46.9078C179.516 45.927 176.086 45.3198 174.252 45.3198H161.047V83.3271H174.227C176.936 83.3271 179.494 82.8489 181.905 81.8783C184.316 80.9051 186.421 79.5707 188.222 77.8762C190.021 76.179 191.445 74.1801 192.481 71.8695C193.524 69.5599 194.04 67.0742 194.044 64.4035C194.04 61.7322 193.526 59.2394 192.486 56.9313ZM184.583 68.8366C183.987 70.2092 183.181 71.3981 182.162 72.4081C181.14 73.4184 179.927 74.2186 178.513 74.8126C177.105 75.4072 175.602 75.7051 174.012 75.7051H169.393V53.0752H174.025C175.621 53.0752 177.118 53.3768 178.53 53.9732C179.938 54.5671 181.151 55.3703 182.173 56.3819C183.195 57.396 183.996 58.5901 184.591 59.9836C185.184 61.3737 185.483 62.8472 185.479 64.3958C185.475 65.9878 185.176 67.4641 184.583 68.8366Z" fill="#02C8FF"/>
</g>
<defs>
<clipPath id="clip0_5_34">
<rect width="224" height="84" fill="white"/>
</clipPath>
</defs>
</svg>
