<?xml version="1.0" encoding="utf-8"?>
<!-- Generator: Adobe Illustrator 27.4.0, SVG Export Plug-In . SVG Version: 6.00 Build 0)  -->
<svg version="1.1" id="Calque_1" xmlns="http://www.w3.org/2000/svg" xmlns:xlink="http://www.w3.org/1999/xlink" x="0px" y="0px"
	 viewBox="0 0 2000 2000" style="enable-background:new 0 0 2000 2000;" xml:space="preserve">
<style type="text/css">
	.st0{display:none;}
	.st1{display:inline;}
	.st2{fill:#0E1014;}
	.st3{fill:#FFFFFF;}
	.st4{fill:none;stroke:#02C8FF;stroke-width:38;stroke-linecap:round;stroke-miterlimit:10;}
	.st5{display:inline;fill:#0E1014;}
</style>
<g class="st0">
	<g class="st1">
		<path class="st2" d="M2898.94,2691.17h-57.16l-10.74-152.59h-3.12v152.59h-53.17v-335.14h53.17v145.31h2.77l11.43-145.31h54.56
			l-18.01,159.86L2898.94,2691.17z"/>
		<path class="st2" d="M2963.37,2691.17l-1.39-73.09h-11.43l-1.39,73.09h-54.9l18.36-335.14h87.98l17.84,335.14H2963.37z
			 M2951.77,2575.13h9.18l-2.6-127.99l-0.69-40.01h-3.12l-0.35,40.01L2951.77,2575.13z"/>
		<path class="st2" d="M3106.26,2576.51l0.35-62.35l6.06-158.13h74.13v335.14h-49.71l0.35-98.55l3.29-137h-3.29l-10.22,235.55
			h-45.38l-10.74-236.24h-3.12l3.46,137.35v98.9h-49.19v-335.14h74.13l6.06,158.13l0.69,62.35H3106.26z"/>
		<path class="st2" d="M3250.54,2645.79h38.62v45.38h-91.8v-335.14h91.1v45.38h-37.93v95.43h36.54v42.95h-36.54V2645.79z"/>
		<path class="st2" d="M3394.12,2356.03v45.03h-24.07v290.11h-53.35v-289.76h-24.42v-45.03L3394.12,2356.03z"/>
		<path class="st2" d="M3456.12,2353.78c19.86,0,34.7,4.91,44.51,14.72c9.81,9.82,14.72,25.29,14.72,46.42v217.36
			c0,21.25-4.91,36.78-14.72,46.59c-9.82,9.82-24.83,14.72-45.03,14.72c-39.26,0-58.83-20.44-58.71-61.31v-217.36
			C3396.89,2374.16,3416.64,2353.78,3456.12,2353.78z M3460.63,2645.1v-242.65c0-4.04-1.53-6.06-4.59-6.06
			c-3.06,0-4.59,2.02-4.59,6.06v242.65c0,4.04,1.53,6.06,4.59,6.06C3459.1,2651.16,3460.63,2649.14,3460.63,2645.1z"/>
	</g>
	<g class="st1">
		<path class="st2" d="M2995.72,3105.35h5.64v-98.63l4.16-284.59h98.63l-34.76,574.83h-114.37l-11.59-282.81l-0.59-128.93h-5.35
			l-0.59,128.93l-10.99,282.81h-117.05L2775,2722.13h99.22l5.35,284.59v97.44h5.35l0.89-97.44l10.7-284.59h86.45l11.59,284.59
			L2995.72,3105.35z"/>
		<path class="st2" d="M3208.42,3296.96l-2.38-125.36h-19.61l-2.38,125.36h-94.17l31.49-574.83h150.91l30.6,574.83H3208.42z
			 M3188.52,3097.92h15.74l-4.46-219.53l-1.19-68.62h-5.35l-0.59,68.62L3188.52,3097.92z"/>
		<path class="st2" d="M3515,3296.96h-94.17l-9.8-212.4h-10.4v212.4h-91.2v-574.83h110.51c29.71,0,52.08,7.18,67.14,21.54
			c15.05,14.36,22.58,34.91,22.58,61.64v182.7c0,23.17-5.55,41.2-16.64,54.07L3515,3296.96z M3400.63,3014.74h3.56
			c7.72,0,11.59-7.32,11.59-21.98v-174.68c0-12.08-3.86-18.12-11.59-18.12h-3.56V3014.74z"/>
	</g>
	<g class="st1">
		<path class="st2" d="M2860.19,3746.57l-1.71-90.1h-14.09l-1.71,90.1H2775l22.63-413.13h108.46l21.99,413.13H2860.19z
			 M2845.88,3603.52h11.32l-3.2-157.78l-0.85-49.32h-3.84l-0.43,49.32L2845.88,3603.52z"/>
		<path class="st2" d="M3080.52,3746.57h-67.68l-7.05-152.65h-7.47v152.65h-65.54v-413.13h79.42c21.35,0,37.43,5.16,48.25,15.48
			c10.82,10.32,16.23,25.09,16.23,44.3v131.3c0,16.65-3.99,29.61-11.96,38.86L3080.52,3746.57z M2998.32,3543.74h2.56
			c5.55,0,8.33-5.26,8.33-15.8V3402.4c0-8.68-2.78-13.02-8.33-13.02h-2.56V3543.74z"/>
		<path class="st2" d="M3153.97,3690.63h47.61v55.94h-113.16v-413.13h112.3v55.94h-46.76v117.64h45.05v52.95h-45.05V3690.63z"/>
		<path class="st2" d="M3302.56,3557.19l-6.62-113.58v-110.17h61.27v413.13h-62.13l-25.41-232.08h-3.42l5.98,120.2v111.88h-61.06
			v-413.13h62.98l24.77,223.75H3302.56z"/>
		<path class="st2" d="M3447.11,3746.57l-1.71-90.1h-14.09l-1.71,90.1h-67.68l22.63-413.13h108.46l21.99,413.13H3447.11z
			 M3432.8,3603.52h11.32l-3.2-157.78l-0.85-49.32h-3.84l-0.43,49.32L3432.8,3603.52z"/>
	</g>
</g>
<g class="st0">
	<g class="st1">
		<g>
			<path class="st3" d="M733.94,2691.17h-57.16l-10.74-152.59h-3.12v152.59h-53.17v-335.14h53.17v145.31h2.77l11.43-145.31h54.56
				l-18.01,159.86L733.94,2691.17z"/>
			<path class="st3" d="M798.37,2691.17l-1.39-73.09h-11.43l-1.39,73.09h-54.9l18.36-335.14h87.98l17.84,335.14H798.37z
				 M786.77,2575.13h9.18l-2.6-127.99l-0.69-40.01h-3.12l-0.35,40.01L786.77,2575.13z"/>
			<path class="st3" d="M941.26,2576.51l0.35-62.35l6.06-158.13h74.13v335.14h-49.71l0.35-98.55l3.29-137h-3.29l-10.22,235.55
				h-45.38l-10.74-236.24h-3.12l3.46,137.35v98.9h-49.19v-335.14h74.13l6.06,158.13l0.69,62.35H941.26z"/>
			<path class="st3" d="M1085.54,2645.79h38.62v45.38h-91.8v-335.14h91.1v45.38h-37.93v95.43h36.54v42.95h-36.54V2645.79z"/>
			<path class="st3" d="M1229.12,2356.03v45.03h-24.07v290.11h-53.35v-289.76h-24.42v-45.03L1229.12,2356.03z"/>
			<path class="st3" d="M1291.12,2353.78c19.86,0,34.7,4.91,44.51,14.72c9.81,9.82,14.72,25.29,14.72,46.42v217.36
				c0,21.25-4.91,36.78-14.72,46.59c-9.82,9.82-24.83,14.72-45.03,14.72c-39.26,0-58.83-20.44-58.71-61.31v-217.36
				C1231.89,2374.16,1251.64,2353.78,1291.12,2353.78z M1295.63,2645.1v-242.65c0-4.04-1.53-6.06-4.59-6.06
				c-3.06,0-4.59,2.02-4.59,6.06v242.65c0,4.04,1.53,6.06,4.59,6.06C1294.1,2651.16,1295.63,2649.14,1295.63,2645.1z"/>
		</g>
	</g>
	<g class="st1">
		<g>
			<path class="st3" d="M830.72,3105.35h5.64v-98.63l4.16-284.59h98.63l-34.76,574.83H790.02l-11.59-282.81l-0.59-128.93h-5.35
				l-0.59,128.93l-10.99,282.81H643.87L610,2722.13h99.22l5.35,284.59v97.44h5.35l0.89-97.44l10.69-284.59h86.45l11.59,284.59
				L830.72,3105.35z"/>
			<path class="st3" d="M1043.42,3296.96l-2.38-125.36h-19.61l-2.38,125.36h-94.17l31.49-574.83h150.91l30.6,574.83H1043.42z
				 M1023.52,3097.92h15.74l-4.46-219.53l-1.19-68.62h-5.35l-0.59,68.62L1023.52,3097.92z"/>
			<path class="st3" d="M1350,3296.96h-94.17l-9.8-212.4h-10.4v212.4h-91.2v-574.83h110.51c29.71,0,52.08,7.18,67.14,21.54
				c15.05,14.36,22.58,34.91,22.58,61.64v182.7c0,23.17-5.55,41.2-16.64,54.07L1350,3296.96z M1235.63,3014.74h3.56
				c7.72,0,11.59-7.32,11.59-21.98v-174.68c0-12.08-3.86-18.12-11.59-18.12h-3.56V3014.74z"/>
		</g>
	</g>
	<g class="st1">
		<g>
			<path class="st3" d="M695.19,3746.57l-1.71-90.1h-14.09l-1.71,90.1H610l22.63-413.13h108.46l21.99,413.13H695.19z
				 M680.88,3603.52h11.32l-3.2-157.78l-0.85-49.32h-3.84l-0.43,49.32L680.88,3603.52z"/>
			<path class="st3" d="M915.52,3746.57h-67.68l-7.05-152.65h-7.47v152.65h-65.55v-413.13h79.42c21.35,0,37.43,5.16,48.25,15.48
				c10.82,10.32,16.23,25.09,16.23,44.3v131.3c0,16.65-3.99,29.61-11.96,38.86L915.52,3746.57z M833.32,3543.74h2.56
				c5.55,0,8.33-5.26,8.33-15.8V3402.4c0-8.68-2.78-13.02-8.33-13.02h-2.56V3543.74z"/>
			<path class="st3" d="M988.97,3690.63h47.61v55.94H923.42v-413.13h112.3v55.94h-46.76v117.64h45.05v52.95h-45.05V3690.63z"/>
			<path class="st3" d="M1137.56,3557.19l-6.62-113.58v-110.17h61.27v413.13h-62.13l-25.41-232.08h-3.42l5.98,120.2v111.88h-61.06
				v-413.13h62.98l24.77,223.75H1137.56z"/>
			<path class="st3" d="M1282.11,3746.57l-1.71-90.1h-14.09l-1.71,90.1h-67.68l22.63-413.13h108.46l21.99,413.13H1282.11z
				 M1267.8,3603.52h11.32l-3.2-157.78l-0.85-49.32h-3.84l-0.43,49.32L1267.8,3603.52z"/>
		</g>
	</g>
</g>
<g>
	<g>
		<g>
			<path class="st3" d="M753.88,641h-57.16l-10.74-152.59h-3.12V641H629.7V305.86h53.17v145.31h2.77l11.43-145.31h54.56
				l-18.01,159.86L753.88,641z"/>
			<path class="st3" d="M818.31,641l-1.39-73.09H805.5L804.11,641h-54.9l18.36-335.14h87.98L873.39,641H818.31z M806.71,524.95h9.18
				l-2.6-127.99l-0.69-40.01h-3.12l-0.35,40.01L806.71,524.95z"/>
			<path class="st3" d="M961.2,526.34l0.35-62.35l6.06-158.13h74.13V641h-49.71l0.35-98.55l3.29-137h-3.29L982.16,641h-45.38
				l-10.74-236.24h-3.12l3.46,137.35V641H877.2V305.86h74.13l6.06,158.13l0.69,62.35H961.2z"/>
			<path class="st3" d="M1105.48,595.62h38.62V641h-91.8V305.86h91.1v45.38h-37.93v95.43h36.54v42.95h-36.54V595.62z"/>
			<path class="st3" d="M1249.06,305.86v45.03h-24.07V641h-53.35V351.24h-24.42V306.2L1249.06,305.86z"/>
			<path class="st3" d="M1311.07,303.61c19.86,0,34.7,4.91,44.51,14.72c9.81,9.82,14.72,25.29,14.72,46.42v217.36
				c0,21.25-4.91,36.78-14.72,46.59c-9.82,9.82-24.83,14.72-45.03,14.72c-39.26,0-58.83-20.44-58.71-61.31V364.74
				C1251.83,323.99,1271.58,303.61,1311.07,303.61z M1315.57,594.93V352.27c0-4.04-1.53-6.06-4.59-6.06c-3.06,0-4.59,2.02-4.59,6.06
				v242.65c0,4.04,1.53,6.06,4.59,6.06C1314.04,600.99,1315.57,598.97,1315.57,594.93z"/>
		</g>
	</g>
	<g>
		<g>
			<path class="st3" d="M850.66,1055.18h5.64v-98.63l4.16-284.59h98.63l-34.76,574.83H809.96l-11.59-282.81l-0.59-128.93h-5.35
				l-0.59,128.93l-10.99,282.81H663.81l-33.87-574.83h99.22l5.35,284.59v97.44h5.35l0.89-97.44l10.69-284.59h86.45l11.59,284.59
				L850.66,1055.18z"/>
			<path class="st3" d="M1063.36,1246.78l-2.38-125.36h-19.61l-2.38,125.36h-94.17l31.49-574.83h150.91l30.6,574.83H1063.36z
				 M1043.46,1047.75h15.74l-4.46-219.53l-1.19-68.62h-5.35l-0.59,68.62L1043.46,1047.75z"/>
			<path class="st3" d="M1369.94,1246.78h-94.17l-9.8-212.4h-10.4v212.4h-91.2V671.96h110.51c29.71,0,52.08,7.18,67.14,21.54
				c15.05,14.36,22.58,34.91,22.58,61.64v182.7c0,23.17-5.55,41.2-16.64,54.07L1369.94,1246.78z M1255.57,964.57h3.56
				c7.72,0,11.59-7.32,11.59-21.98V767.91c0-12.08-3.86-18.12-11.59-18.12h-3.56V964.57z"/>
		</g>
	</g>
	<g>
		<g>
			<path class="st3" d="M715.13,1696.39l-1.71-90.1h-14.09l-1.71,90.1h-67.68l22.63-413.13h108.46l21.99,413.13H715.13z
				 M700.82,1553.35h11.32l-3.2-157.78l-0.85-49.32h-3.84l-0.43,49.32L700.82,1553.35z"/>
			<path class="st3" d="M935.46,1696.39h-67.68l-7.05-152.65h-7.47v152.65h-65.55v-413.13h79.42c21.35,0,37.43,5.16,48.25,15.48
				c10.82,10.32,16.23,25.09,16.23,44.3v131.3c0,16.65-3.99,29.61-11.96,38.86L935.46,1696.39z M853.26,1493.57h2.56
				c5.55,0,8.33-5.26,8.33-15.8v-125.54c0-8.68-2.78-13.02-8.33-13.02h-2.56V1493.57z"/>
			<path class="st3" d="M1008.91,1640.46h47.61v55.94H943.36v-413.13h112.3v55.94h-46.76v117.64h45.05v52.95h-45.05V1640.46z"/>
			<path class="st3" d="M1157.51,1507.02l-6.62-113.58v-110.17h61.27v413.13h-62.13l-25.41-232.08h-3.42l5.98,120.2v111.88h-61.06
				v-413.13h62.98l24.77,223.75H1157.51z"/>
			<path class="st3" d="M1302.05,1696.39l-1.71-90.1h-14.09l-1.71,90.1h-67.68l22.63-413.13h108.46l21.99,413.13H1302.05z
				 M1287.74,1553.35h11.32l-3.2-157.78l-0.85-49.32h-3.84l-0.43,49.32L1287.74,1553.35z"/>
		</g>
	</g>
	<g>
		<line class="st4" x1="1180.96" y1="614.53" x2="1252.42" y2="709.52"/>
		<line class="st4" x1="1264.18" y1="626.29" x2="1169.19" y2="697.75"/>
	</g>
	<g>
		<line class="st4" x1="652.83" y1="1221.89" x2="760.55" y2="1272.16"/>
		<line class="st4" x1="731.82" y1="1193.17" x2="681.56" y2="1300.88"/>
	</g>
</g>
<g class="st0">
	<g class="st1">
		<g>
			<path class="st2" d="M733.94,611.17h-57.16l-10.74-152.59h-3.12v152.59h-53.17V276.03h53.17v145.31h2.77l11.43-145.31h54.56
				l-18.01,159.86L733.94,611.17z"/>
			<path class="st2" d="M798.37,611.17l-1.39-73.09h-11.43l-1.39,73.09h-54.9l18.36-335.14h87.98l17.84,335.14H798.37z
				 M786.77,495.13h9.18l-2.6-127.99l-0.69-40.01h-3.12l-0.35,40.01L786.77,495.13z"/>
			<path class="st2" d="M941.26,496.51l0.35-62.35l6.06-158.13h74.13v335.14h-49.71l0.35-98.55l3.29-137h-3.29l-10.22,235.55h-45.38
				L906.1,374.93h-3.12l3.46,137.35v98.9h-49.19V276.03h74.13l6.06,158.13l0.69,62.35H941.26z"/>
			<path class="st2" d="M1085.54,565.79h38.62v45.38h-91.8V276.03h91.1v45.38h-37.93v95.43h36.54v42.95h-36.54V565.79z"/>
			<path class="st2" d="M1229.12,276.03v45.03h-24.07v290.11h-53.35V321.41h-24.42v-45.03L1229.12,276.03z"/>
			<path class="st2" d="M1291.12,273.78c19.86,0,34.7,4.91,44.51,14.72c9.81,9.82,14.72,25.29,14.72,46.42v217.36
				c0,21.25-4.91,36.78-14.72,46.59c-9.82,9.82-24.83,14.72-45.03,14.72c-39.26,0-58.83-20.44-58.71-61.31V334.92
				C1231.89,294.16,1251.64,273.78,1291.12,273.78z M1295.63,565.1V322.45c0-4.04-1.53-6.06-4.59-6.06c-3.06,0-4.59,2.02-4.59,6.06
				V565.1c0,4.04,1.53,6.06,4.59,6.06C1294.1,571.16,1295.63,569.14,1295.63,565.1z"/>
		</g>
	</g>
	<g class="st1">
		<g>
			<path class="st2" d="M830.72,1025.35h5.64v-98.63l4.16-284.59h98.63l-34.76,574.83H790.02l-11.59-282.81l-0.59-128.93h-5.35
				l-0.59,128.93l-10.99,282.81H643.87L610,642.13h99.22l5.35,284.59v97.44h5.35l0.89-97.44l10.69-284.59h86.45l11.59,284.59
				L830.72,1025.35z"/>
			<path class="st2" d="M1043.42,1216.96l-2.38-125.36h-19.61l-2.38,125.36h-94.17l31.49-574.83h150.91l30.6,574.83H1043.42z
				 M1023.52,1017.92h15.74l-4.46-219.53l-1.19-68.62h-5.35l-0.59,68.62L1023.52,1017.92z"/>
			<path class="st2" d="M1350,1216.96h-94.17l-9.8-212.4h-10.4v212.4h-91.2V642.13h110.51c29.71,0,52.08,7.18,67.14,21.54
				c15.05,14.36,22.58,34.91,22.58,61.64v182.7c0,23.17-5.55,41.2-16.64,54.07L1350,1216.96z M1235.63,934.74h3.56
				c7.72,0,11.59-7.32,11.59-21.98V738.08c0-12.08-3.86-18.12-11.59-18.12h-3.56V934.74z"/>
		</g>
	</g>
	<g class="st1">
		<g>
			<path class="st2" d="M695.19,1666.57l-1.71-90.1h-14.09l-1.71,90.1H610l22.63-413.13h108.46l21.99,413.13H695.19z
				 M680.88,1523.52h11.32l-3.2-157.78l-0.85-49.32h-3.84l-0.43,49.32L680.88,1523.52z"/>
			<path class="st2" d="M915.52,1666.57h-67.68l-7.05-152.65h-7.47v152.65h-65.55v-413.13h79.42c21.35,0,37.43,5.16,48.25,15.48
				c10.82,10.32,16.23,25.09,16.23,44.3v131.3c0,16.65-3.99,29.61-11.96,38.86L915.52,1666.57z M833.32,1463.74h2.56
				c5.55,0,8.33-5.26,8.33-15.8V1322.4c0-8.68-2.78-13.02-8.33-13.02h-2.56V1463.74z"/>
			<path class="st2" d="M988.97,1610.63h47.61v55.94H923.42v-413.13h112.3v55.94h-46.76v117.64h45.05v52.95h-45.05V1610.63z"/>
			<path class="st2" d="M1137.56,1477.19l-6.62-113.58v-110.17h61.27v413.13h-62.13l-25.41-232.08h-3.42l5.98,120.2v111.88h-61.06
				v-413.13h62.98l24.77,223.75H1137.56z"/>
			<path class="st2" d="M1282.11,1666.57l-1.71-90.1h-14.09l-1.71,90.1h-67.68l22.63-413.13h108.46l21.99,413.13H1282.11z
				 M1267.8,1523.52h11.32l-3.2-157.78l-0.85-49.32h-3.84l-0.43,49.32L1267.8,1523.52z"/>
		</g>
	</g>
	<g class="st1">
		<line class="st4" x1="1161.02" y1="584.7" x2="1232.48" y2="679.69"/>
		<line class="st4" x1="1244.24" y1="596.47" x2="1149.25" y2="667.93"/>
	</g>
	<g class="st1">
		<line class="st4" x1="632.89" y1="1192.06" x2="740.61" y2="1242.33"/>
		<line class="st4" x1="711.88" y1="1163.34" x2="661.62" y2="1271.06"/>
	</g>
</g>
<g class="st0">
	<g class="st1">
		<path class="st2" d="M1440.41,5973.02c-21.74,10.43-44.04,20.25-66.53,29.33C1396.5,5992.88,1418.68,5983.1,1440.41,5973.02z"/>
		<path class="st2" d="M1837.07,5234.08v436.3h-350.68v280.54l-45.34,21.79c-0.14,0.07-0.28,0.13-0.42,0.21
			c-0.07,0.04-0.14,0.06-0.22,0.1c-21.73,10.08-43.91,19.86-66.53,29.33c-0.09,0.05-0.18,0.07-0.27,0.11
			c-3.15,1.32-6.3,2.63-9.47,3.92l-23.78,9.63c-26.92,10.7-54.46,20.95-82.64,30.77l0.59,49.14l-64.28,13.56
			c-64.28,13.56-130.01,20.44-195.36,20.44c-14.47,0-29.18-0.34-43.72-1l-76.62-3.5l0.21-59.94
			c-109.66-14.04-215.31-45.19-314.39-92.75l-45.38-21.79v-280.56H168.09v-436.3H1837.07z"/>
		<path class="st3" d="M1807.07,5264.08v376.29h-350.68v291.68c-35.29,18.45-72.96,35.32-113.57,50.24
			c-0.12,0.05-0.25,0.09-0.37,0.14c-33.54,12.31-69.08,23.3-106.94,32.76c-2.7,0.67-5.42,1.34-8.15,2l0.66,54.46l-40.18,8.47
			c-62.25,13.13-125.9,19.79-189.17,19.79c-14.02,0-28.27-0.33-42.36-0.97l-47.88-2.18l0.2-58.02
			c-115.92-11.8-227.32-43.05-331.5-93.06l-28.36-13.61v-291.7H198.09v-376.29H1807.07z"/>
		<path class="st2" d="M333.1,5484.11v106.27h-85.01v-276.29h85.01v106.27h42.51v-106.27h85.01v106.27l-31.88,31.88l31.88,31.88
			v106.27h-85.01v-106.27H333.1z"/>
		<path class="st2" d="M481.87,5314.08h212.53v276.29h-85.01v-106.27h-42.51v106.27h-85.01V5314.08z M566.89,5377.84v42.51h42.51
			v-42.51H566.89z"/>
		<path class="st2" d="M800.67,5377.84v212.53h-85.01v-276.29h340.05v276.29H970.7v-212.53h-42.51v212.53h-85.01v-212.53H800.67z"/>
		<path class="st2" d="M1161.98,5526.62h127.52v63.76h-212.53v-276.29h212.53v63.76h-127.52v42.51h127.52v63.76h-127.52V5526.62z"/>
		<path class="st2" d="M1459.52,5377.84v212.53h-85.01v-212.53h-63.76v-63.76h212.53v63.76H1459.52z"/>
		<path class="st2" d="M1544.54,5590.38v-276.29h212.53v276.29H1544.54z M1629.55,5526.62h42.51v-148.77h-42.51V5526.62z"/>
	</g>
	<path class="st5" d="M722.84,5874.81c1.15-83.5,2.3-167,3.44-250.49c28.34,0,56.68,0,85.01,0c-1.16,89.3-2.32,178.6-3.48,267.89
		c14.3,2.3,28.61,4.41,42.97,6.33c1-91.41,2.01-182.81,3.01-274.22c28.34,0,56.68,0,85.01,0c-0.63,122.26-1.26,244.51-1.89,366.77
		c-117.96-9.17-231.47-39.27-338.16-90.48c0-92.1,0-184.19,0-276.29c28.34,0,56.68,0,85.01,0c-0.94,79.81-1.88,159.61-2.81,239.42
		C694.88,5867.63,708.83,5871.31,722.84,5874.81z"/>
	<path class="st5" d="M960.07,5624.32c70.84,0,141.69,0,212.53,0c1.2,99.46,2.4,198.92,3.61,298.38
		c-28.75,4.48-57.54,7.95-86.53,10.44c-0.19-28.08-0.38-56.15-0.57-84.22c-14.41,0.79-28.82,1.42-43.24,1.9
		c0.1,28.31,0.2,56.62,0.3,84.94c-29.09,1-58.09,1-87.18,0C959.35,5831.94,959.71,5728.13,960.07,5624.32z M1176.54,5949.83
		c0.33,27.13,0.66,54.25,0.98,81.38c-72.3,15.25-145.12,21.17-218.93,17.79c0.1-28.31,0.2-56.62,0.3-84.94
		C1031.98,5966.75,1104.42,5962.04,1176.54,5949.83z M1045.38,5709.25c0.07,18.87,0.13,37.75,0.2,56.62
		c14.33-0.3,28.64-0.69,42.97-1.19c-0.13-18.72-0.25-37.43-0.38-56.15C1073.9,5708.84,1059.64,5709.07,1045.38,5709.25z"/>
	<path class="st5" d="M1323.63,5815.85c-13.97,3.11-27.96,6.06-42,8.86c0.57,41.75,1.15,83.5,1.72,125.25
		c-28.05,8.72-56.3,16.24-84.97,22.62c-1.51-116.09-3.01-232.18-4.52-348.26c70.84,0,141.69,0,212.53,0c0,35.42,0,70.84,0,106.27
		c-10.61,12.75-20.9,25.77-31.02,38.92c10.07,8.61,20.4,16.92,31.02,24.84c0,35.42,0,70.84,0,106.27
		c-26.66,12.82-53.71,24.44-81.35,34.96C1324.57,5895.66,1324.1,5855.76,1323.63,5815.85z M1279.9,5699.47
		c0.23,16.7,0.46,33.4,0.69,50.1c14.08-1.75,28.14-3.59,42.19-5.54c-0.19-15.96-0.38-31.92-0.56-47.88
		C1308.12,5697.31,1294.01,5698.42,1279.9,5699.47z"/>
</g>
</svg>
