<svg width="91" height="90" viewBox="0 0 91 90" fill="none" xmlns="http://www.w3.org/2000/svg">
<g clip-path="url(#clip0_5_170)">
<path d="M91 0H0V90H91V0Z" fill="#FF7900"/>
<path d="M35.6938 81.2697C34.4099 82.0951 32.9975 82.5078 31.521 82.5078C29.1457 82.5078 27.7654 80.9522 27.7654 78.857C27.7654 76.0634 30.3654 74.5713 35.7259 73.9681V73.2697C35.7259 72.3491 35.0198 71.8411 33.7358 71.8411C32.4519 71.8411 31.3926 72.3491 30.6543 73.2697L28.4074 71.9999C29.5951 70.3808 31.3926 69.5554 33.8 69.5554C37.1062 69.5554 38.9679 70.984 38.9679 73.2697C38.9679 73.2697 38.9679 82.3173 38.9679 82.3491H36.0148L35.6938 81.2697ZM31.0074 78.6348C31.0074 79.4602 31.5531 80.2538 32.5161 80.2538C33.5753 80.2538 34.5704 79.8094 35.5975 78.9205V75.9681C32.484 76.3808 31.0074 77.1427 31.0074 78.6348Z" fill="white"/>
<path d="M41.5679 70.1903L44.3284 69.8094L44.6173 71.3014C46.1901 70.1903 47.4099 69.5872 48.9827 69.5872C51.5827 69.5872 52.9309 70.9522 52.9309 73.6507V82.3808H49.5926V74.2221C49.5926 72.6983 49.1753 71.9999 47.9877 71.9999C46.9926 71.9999 45.9975 72.4443 44.8741 73.3967V82.3808H41.5679V70.1903Z" fill="white"/>
<path d="M75.0148 82.603C71.2913 82.603 69.0444 80.2221 69.0444 76.0951C69.0444 71.9364 71.2913 69.5554 74.9506 69.5554C78.6099 69.5554 80.7926 71.8411 80.7926 75.9364C80.7926 76.1586 80.7605 76.3808 80.7605 76.5713H72.3185C72.3506 78.9522 73.3457 80.1268 75.3037 80.1268C76.5555 80.1268 77.3901 79.6189 78.1605 78.5078L80.6 79.8411C79.5407 81.6507 77.6148 82.603 75.0148 82.603ZM77.5185 74.4443C77.5185 72.7618 76.5555 71.7776 74.9827 71.7776C73.4741 71.7776 72.5432 72.73 72.4148 74.4443H77.5185Z" fill="white"/>
<path d="M11.2025 82.73C7.89629 82.73 4.94321 80.6665 4.94321 76.1269C4.94321 71.5872 7.92839 69.5237 11.2025 69.5237C14.5086 69.5237 17.4617 71.5872 17.4617 76.1269C17.4617 80.6665 14.5086 82.73 11.2025 82.73ZM11.2025 72.2856C8.73086 72.2856 8.24938 74.5078 8.24938 76.0951C8.24938 77.7142 8.69876 79.9046 11.2025 79.9046C13.7062 79.9046 14.1556 77.6824 14.1556 76.0951C14.1556 74.5078 13.6741 72.2856 11.2025 72.2856Z" fill="white"/>
<path d="M19.7407 69.8411H22.9185V71.3015C23.5284 70.5078 25.0049 69.5554 26.4173 69.5554C26.5457 69.5554 26.7062 69.5554 26.8345 69.5872V72.6665C26.7704 72.6665 26.7383 72.6665 26.6741 72.6665C25.2296 72.6665 23.6247 72.8888 23.1432 73.9999V82.3173H19.7407V69.8411Z" fill="white"/>
<path d="M61.0839 79.6826C63.6198 79.6509 63.8123 77.1112 63.8123 75.4604C63.8123 73.4921 62.8494 71.9048 61.0518 71.9048C59.8642 71.9048 58.516 72.762 58.516 75.5874C58.5481 77.1429 58.6444 79.6826 61.0839 79.6826ZM67.0543 69.8096V81.6826C67.0543 83.7779 66.8938 87.2064 60.8593 87.2699C58.3556 87.2699 56.0765 86.2858 55.5951 84.1588L58.8691 83.6509C58.9975 84.2541 59.3827 84.889 61.2444 84.889C62.9778 84.889 63.8123 84.0636 63.8123 82.1271V80.6668L63.7802 80.635C63.2667 81.5556 62.4321 82.4445 60.5062 82.4445C57.5531 82.4445 55.242 80.4128 55.242 76.1906C55.242 72.0001 57.6494 69.6509 60.3457 69.6509C62.8815 69.6509 63.8123 70.7937 64.037 71.3969H64.0049L64.2938 69.9048H67.0543V69.8096Z" fill="white"/>
<path d="M82.0766 65.6508H80.7605V69.2381H80.0543V65.6508H78.7383V65.1111H82.0445V65.6508H82.0766ZM87.5333 69.2381H86.8272V65.7777H86.7951L85.4148 69.2381H84.9654L83.5852 65.7777H83.5531V69.2381H82.8469V65.1111H83.9062L85.158 68.2539L86.3778 65.1111H87.437V69.2381H87.5333Z" fill="white"/>
</g>
<defs>
<clipPath id="clip0_5_170">
<rect width="91" height="90" fill="white"/>
</clipPath>
</defs>
</svg>
