<svg width="271" height="197" viewBox="0 0 271 197" fill="none" xmlns="http://www.w3.org/2000/svg">
<path d="M157.222 102.055H142.578V58.0334H157.222V72.7074L166.162 58.0334H182.545L167.901 80.1663L182.545 102.299H166.162L157.222 87.6253V102.055ZM241.156 69.4659H249.365V58.0334H218.337V69.4659H226.546V102.055H241.19V69.4659H241.156ZM215.103 90.6228H198.719V85.6385H211.624V74.4501H198.719V69.4659H215.103V58.0334H184.075V102.09H215.103V90.6228ZM52.6974 138.13H36.3142V105.297H21.6355V149.353H52.6626V138.13H52.6974ZM86.9593 138.13H70.5762V133.146H83.4809V121.713H70.5762V116.729H86.9593V105.297H55.9322V149.353H86.9593V138.13ZM249.365 138.13H232.981V133.146H245.886V121.713H232.981V116.729H249.365V105.297H218.337V149.353H249.365V138.13ZM106.577 80.1663C106.577 92.8535 96.3857 103.066 83.7244 103.066C71.0632 103.066 60.8715 92.8535 60.8715 80.1663C60.8715 67.4791 71.0632 57.2666 83.7244 57.2666C96.3857 57.2666 106.577 67.4791 106.577 80.1663ZM91.9334 80.1663C91.9334 75.7049 88.2115 71.9406 83.7244 71.9406C79.2373 71.9406 75.5155 75.67 75.5155 80.1663C75.5155 84.6626 79.2373 88.3921 83.7244 88.3921C88.2115 88.3921 91.9334 84.6277 91.9334 80.1663ZM200.424 130.671C200.424 133.425 198.198 135.655 195.45 135.655C192.702 135.655 190.476 133.425 190.476 130.671V105.297H175.832V130.671C175.832 141.372 184.528 150.329 195.45 150.329C206.128 150.329 215.068 141.616 215.068 130.671V105.297H200.424V130.671ZM139.344 84.8717C137.848 86.8585 133.883 88.1132 131.135 88.1132C126.682 88.1132 122.926 84.3838 122.926 79.8875C122.926 75.3912 126.648 71.6617 131.135 71.6617C133.883 71.6617 137.848 72.9165 139.344 74.9032V57.9986C137.361 57.5106 133.396 56.9878 131.135 56.9878C118.473 56.9878 108.282 67.2003 108.282 79.8875C108.282 92.5747 118.473 102.787 131.135 102.787C133.361 102.787 137.083 102.543 139.344 101.776V84.8717ZM59.1323 71.9406C59.1323 78.1447 55.8975 83.6518 50.4364 84.6277L61.602 102.055H45.2189L36.2794 87.3813V102.055H21.6355V58.0334H44.4884C52.6973 58.0334 59.1323 63.7496 59.1323 71.9406ZM44.4884 74.4501C44.4884 71.6966 42.2622 69.4659 39.5143 69.4659H36.2794V79.1555H39.5143C42.2622 79.1555 44.4884 77.1688 44.4884 74.4501ZM116.247 142.87H104.838L103.342 149.353H88.6985L103.342 105.297H117.986L132.63 149.353H117.986L116.247 142.87ZM113.534 131.403L110.543 118.96L107.551 131.403H113.534ZM173.119 123.456H152.005V134.157H158.718C157.988 135.655 156.492 138.13 152.005 138.13C147.031 138.13 143.065 133.913 143.065 128.44C143.065 122.48 147.518 118.995 152.005 118.751C156.979 118.507 158.962 120.493 160.457 121.992L170.649 112.303C165.675 107.318 159.97 104.844 152.04 104.844C139.378 104.844 129.187 115.056 129.187 127.743C129.187 140.43 139.344 150.573 152.005 150.573C165.153 150.573 173.119 141.128 173.119 129.416V123.456Z" fill="#02C8FF"/>
</svg>
