<svg width="54" height="54" viewBox="0 0 54 54" fill="none" xmlns="http://www.w3.org/2000/svg">
<path d="M22.0568 15C18.1832 15 15 18.179 15 22.0568V31.9432C15 35.8168 18.179 39 22.0568 39H31.9432C35.8168 39 39 35.821 39 31.9432V22.0568C39 18.1832 35.821 15 31.9432 15H22.0568ZM22.0568 17.1818H31.9432C34.6406 17.1818 36.8182 19.3594 36.8182 22.0568V31.9432C36.8182 34.6406 34.6406 36.8182 31.9432 36.8182H22.0568C19.3594 36.8182 17.1818 34.6406 17.1818 31.9432V22.0568C17.1818 19.3594 19.3594 17.1818 22.0568 17.1818ZM33.4432 19.5682C32.8935 19.5682 32.4545 20.0071 32.4545 20.5568C32.4545 21.1065 32.8935 21.5455 33.4432 21.5455C33.9929 21.5455 34.4318 21.1065 34.4318 20.5568C34.4318 20.0071 33.9929 19.5682 33.4432 19.5682ZM27 20.4545C23.3991 20.4545 20.4545 23.3991 20.4545 27C20.4545 30.6009 23.3991 33.5455 27 33.5455C30.6009 33.5455 33.5455 30.6009 33.5455 27C33.5455 23.3991 30.6009 20.4545 27 20.4545ZM27 22.6364C29.4247 22.6364 31.3636 24.5753 31.3636 27C31.3636 29.4247 29.4247 31.3636 27 31.3636C24.5753 31.3636 22.6364 29.4247 22.6364 27C22.6364 24.5753 24.5753 22.6364 27 22.6364Z" fill="white"/>
<circle cx="27" cy="27" r="26.5" stroke="#333C4D"/>
</svg>
