<svg width="54" height="54" viewBox="0 0 54 54" fill="none" xmlns="http://www.w3.org/2000/svg">
<path d="M36.543 21.9789C36.5576 22.1959 36.5576 22.4129 36.5576 22.6319C36.5576 29.3045 31.6045 37 22.5476 37V36.996C19.8722 37 17.2523 36.2141 15 34.7321C15.389 34.7801 15.78 34.8041 16.172 34.8051C18.3892 34.8071 20.543 34.0442 22.2873 32.6393C20.1803 32.5983 18.3326 31.1894 17.6871 29.1325C18.4252 29.2785 19.1857 29.2485 19.9102 29.0455C17.613 28.5695 15.9604 26.4997 15.9604 24.0958V24.0318C16.6449 24.4228 17.4112 24.6398 18.1951 24.6638C16.0316 23.1809 15.3647 20.2291 16.6712 17.9212C19.1711 21.076 22.8596 22.9939 26.8191 23.1969C26.4223 21.443 26.9644 19.6051 28.2436 18.3722C30.2268 16.4603 33.3459 16.5583 35.2101 18.5912C36.3129 18.3682 37.3698 17.9532 38.337 17.3652C37.9694 18.5342 37.2001 19.5271 36.1725 20.1581C37.1484 20.0401 38.102 19.7721 39 19.3631C38.3389 20.379 37.5063 21.264 36.543 21.9789Z" fill="white"/>
<circle cx="27" cy="27" r="26.5" stroke="#333C4D"/>
</svg>
