<svg width="249" height="249" viewBox="0 0 249 249" fill="none" xmlns="http://www.w3.org/2000/svg">
<path d="M174.3 99.849V61.1046C174.3 60.507 173.553 60.258 173.155 60.7062L130.825 113.594C130.476 113.992 130.775 114.64 131.323 114.64H161.9C162.746 114.64 163.493 114.241 163.991 113.594L173.653 101.542C174.051 101.094 174.3 100.496 174.3 99.849ZM75.2976 101.592L107.07 141.332C107.568 141.98 108.365 142.328 109.211 142.328H139.789C140.336 142.328 140.635 141.731 140.287 141.332L75.7956 60.756C75.3972 60.3078 74.6502 60.5568 74.6502 61.1544V99.8988C74.7 100.496 74.8992 101.094 75.2976 101.592Z" fill="#02C8FF"/>
<path d="M202.387 165.585H209.509V187.397C209.509 187.696 209.758 187.895 210.007 187.895H214.09C214.389 187.895 214.588 187.646 214.588 187.397V165.585H223.552C223.801 165.585 223.951 165.286 223.801 165.087L220.714 161.252C220.465 160.954 220.066 160.754 219.668 160.754H202.337C202.039 160.754 201.839 161.003 201.839 161.252V165.087C201.889 165.336 202.088 165.585 202.387 165.585ZM30.2286 187.447L51.1446 161.252C51.294 161.053 51.1446 160.754 50.8956 160.754H45.7164C45.318 160.754 44.9196 160.954 44.6706 161.252L29.8302 179.828V161.252C29.8302 160.954 29.5812 160.754 29.3322 160.754H25.2486C24.9498 160.754 24.7506 161.003 24.7506 161.252V187.447C24.7506 187.746 24.9996 187.945 25.2486 187.945H29.2326C29.5812 187.945 29.9796 187.746 30.2286 187.447ZM45.0192 187.447L52.1904 178.433L59.4114 187.447C59.6604 187.746 60.0588 187.945 60.4572 187.945H64.4412C64.74 187.945 64.9392 187.696 64.9392 187.447V161.252C64.9392 160.954 64.6902 160.754 64.4412 160.754H61.1046C60.3078 160.754 59.511 161.103 59.013 161.75L38.4954 187.447C38.346 187.646 38.4954 187.945 38.7444 187.945H43.9236C44.3718 187.945 44.7204 187.746 45.0192 187.447ZM59.8596 168.324V180.376L55.029 174.35L59.8596 168.324ZM176.641 187.447L155.725 161.252C155.476 160.954 155.077 160.754 154.679 160.754H150.695C150.396 160.754 150.197 161.003 150.197 161.252V187.447C150.197 187.746 150.446 187.945 150.695 187.945H154.679C155.077 187.945 155.476 187.746 155.725 187.447L162.946 178.433L170.117 187.447C170.366 187.746 170.764 187.945 171.163 187.945H176.392C176.69 187.945 176.84 187.646 176.641 187.447ZM160.107 174.35L155.276 180.376V168.324L160.107 174.35ZM102.538 160.057C94.6698 160.057 88.2456 166.432 88.2456 174.35C88.2456 182.218 94.62 188.642 102.538 188.642C110.407 188.642 116.831 182.268 116.831 174.35C116.831 166.432 110.407 160.057 102.538 160.057ZM102.538 183.762C97.4586 183.762 93.375 179.529 93.375 174.35C93.375 169.121 97.4586 164.938 102.538 164.938C107.618 164.938 111.701 169.171 111.701 174.35C111.701 179.529 107.618 183.762 102.538 183.762ZM193.224 161.252V179.828L178.384 161.252C178.135 160.954 177.736 160.754 177.338 160.754H173.354C173.055 160.754 172.856 161.003 172.856 161.252V173.852C172.856 174.151 172.955 174.449 173.155 174.698L177.388 180.027C177.587 180.276 177.935 180.127 177.935 179.828V168.872L192.776 187.447C193.025 187.746 193.423 187.945 193.822 187.945H197.806C198.104 187.945 198.304 187.696 198.304 187.447V161.252C198.304 160.954 198.055 160.754 197.806 160.754H193.722C193.473 160.754 193.224 160.954 193.224 161.252ZM143.324 166.93V161.252C143.324 160.954 143.075 160.754 142.826 160.754H121.91C121.612 160.754 121.412 161.003 121.412 161.252V187.447C121.412 187.746 121.661 187.945 121.91 187.945H125.994C126.293 187.945 126.492 187.696 126.492 187.447V165.635H138.195L130.277 175.545C130.127 175.744 130.127 175.993 130.277 176.192L139.291 187.497C139.54 187.796 139.938 187.995 140.336 187.995H145.565C145.814 187.995 145.964 187.696 145.814 187.497L136.601 175.794L143.026 167.726C143.225 167.527 143.324 167.228 143.324 166.93ZM71.6124 187.945H83.7138C84.1122 187.945 84.5106 187.746 84.7596 187.447L87.7974 183.613C87.9468 183.413 87.7974 183.115 87.5484 183.115H76.194V161.302C76.194 161.003 75.945 160.804 75.696 160.804H71.6124C71.3136 160.804 71.1144 161.053 71.1144 161.302V187.497C71.1144 187.696 71.3136 187.945 71.6124 187.945Z" fill="#02C8FF"/>
</svg>
