<svg width="160" height="160" viewBox="0 0 160 160" fill="none" xmlns="http://www.w3.org/2000/svg">
<path d="M39.1824 6.80078C40.14 9.62718 41.072 12.4632 42.0584 15.2792C48.6952 34.2376 55.34 53.1928 61.9984 72.1432C62.2624 72.8944 62.2504 73.4896 61.8384 74.2184C57.144 82.5224 52.4912 90.8504 47.8256 99.1712C47.708 99.3816 47.5664 99.5792 47.3536 99.9128C46.0232 97.6992 44.7216 95.5928 43.4776 93.4528C37.3728 82.9544 31.2544 72.4632 25.2 61.936C21.9696 56.3192 20.248 50.2304 19.8952 43.7568C19.8848 43.5648 19.7832 43.3784 19.724 43.1896C19.724 41.8496 19.724 40.5096 19.724 39.1704C19.784 38.9464 19.8848 38.7256 19.8976 38.4992C20.1288 34.3328 20.928 30.2744 22.3008 26.3408C24.3536 20.4544 27.3408 15.1408 31.9816 10.8624C33.9128 9.08158 36.1728 7.85518 38.5472 6.80318C38.7592 6.80078 38.9704 6.80078 39.1824 6.80078Z" fill="white"/>
<path d="M121.241 6.80078C124.458 8.08318 127.244 9.98318 129.576 12.5544C134.51 17.9944 137.457 24.4368 138.978 31.5448C141.305 42.4112 139.938 52.7944 134.36 62.4664C127.237 74.8184 119.989 87.0984 112.793 99.408C112.706 99.5576 112.59 99.692 112.437 99.9056C111.202 97.7096 109.994 95.568 108.79 93.4232C105.174 86.9752 101.55 80.5312 97.9672 74.0648C97.7304 73.6376 97.6128 72.968 97.7672 72.5256C105.364 50.7344 112.996 28.9552 120.627 7.17598C120.673 7.04478 120.753 6.92638 120.817 6.80158C120.959 6.80078 121.1 6.80078 121.241 6.80078Z" fill="white"/>
<path d="M79.9216 102.051C84.9856 94.4495 89.98 86.9511 95.052 79.3375C95.2872 79.7159 95.4688 79.9863 95.6296 80.2703C99.9088 87.8399 104.177 95.4159 108.482 102.97C108.813 103.552 109.33 104.097 109.888 104.468C112.732 106.36 115.629 108.171 118.473 110.062C118.85 110.314 119.24 110.847 119.27 111.275C119.75 118.091 120.174 124.912 120.606 131.731C120.627 132.075 120.608 132.421 120.608 132.827C119.658 132.827 118.755 132.827 117.726 132.827C117.21 130.395 116.686 127.93 116.162 125.466C115.394 121.85 114.643 118.231 113.834 114.626C113.753 114.264 113.319 113.982 113.046 113.666C113.027 113.643 112.979 113.647 112.947 113.634C107.962 111.568 107.975 111.649 102.599 112.451C95.2528 113.547 87.8976 114.605 80.5208 115.452C78.5464 115.678 76.4704 115.125 74.452 114.85C67.0568 113.843 59.668 112.797 52.2728 111.79C51.8456 111.732 51.3568 111.818 50.9488 111.973C49.5688 112.498 48.1888 113.038 46.86 113.678C46.4704 113.866 46.0704 114.365 45.9776 114.788C44.7296 120.496 43.536 126.215 42.3256 131.931C42.2616 132.234 42.1704 132.532 42.0872 132.854C41.1384 132.854 40.2304 132.854 39.1736 132.854C39.248 131.674 39.3192 130.532 39.392 129.39C39.7704 123.484 40.1616 117.58 40.5128 111.673C40.5608 110.859 40.8248 110.346 41.5432 109.899C44.3528 108.151 47.1336 106.354 49.8816 104.51C50.4936 104.1 51.06 103.501 51.4248 102.862C55.6808 95.4007 59.8936 87.9151 64.12 80.4375C64.3056 80.1087 64.5104 79.7903 64.7896 79.3303C69.8528 86.9343 74.8424 94.4247 79.9216 102.051Z" fill="white"/>
<path d="M100.349 117.777C93.5576 129.481 86.784 141.157 79.9192 152.988C72.9848 141.151 66.1344 129.457 59.1896 117.602C62.3072 118.093 65.2224 118.547 68.1368 119.011C71.8544 119.602 75.5544 120.368 79.2944 120.725C81.1352 120.901 83.0536 120.373 84.9256 120.088C89.968 119.317 95.0032 118.504 100.042 117.711C100.104 117.7 100.175 117.737 100.349 117.777Z" fill="white"/>
<path d="M79.8896 93.0791C77.8968 90.0279 75.9368 87.0271 73.9776 84.0255C71.9752 80.9583 69.9744 77.8903 67.9696 74.8255C67.6968 74.4079 67.488 74.0775 67.8504 73.5215C71.7872 67.4703 75.6856 61.3943 79.5968 55.3263C79.672 55.2095 79.7704 55.1071 79.8984 54.9463C80.0664 55.1455 80.2368 55.3079 80.3616 55.5007C84.1968 61.4503 88.0192 67.4079 91.872 73.3463C92.2304 73.8991 92.2504 74.2759 91.8816 74.8367C88.0104 80.7207 84.1704 86.6247 80.3192 92.5223C80.2056 92.6951 80.0664 92.8511 79.8896 93.0791Z" fill="white"/>
<path d="M136.008 77.8496C135.623 81.5968 135.049 85.192 134.954 88.8C134.887 91.3456 133.728 92.6 131.646 93.7472C127.055 96.2776 122.607 99.0656 118.099 101.746C117.776 101.938 117.441 102.11 116.969 102.174C117.661 101.014 118.461 99.9032 119.025 98.6832C120.998 94.416 124.032 91.2136 128.199 89.0352C128.718 88.764 129.159 88.1176 129.386 87.5456C130.526 84.6688 131.618 81.7704 132.648 78.852C132.936 78.036 133.34 77.7384 134.174 77.836C134.753 77.9048 135.347 77.8496 136.008 77.8496Z" fill="white"/>
<path d="M23.9144 77.9112C26.7344 77.6896 26.7368 77.6888 27.6664 80.1624C28.6184 82.6952 29.5432 85.2384 30.5336 87.7552C30.7112 88.2064 31.0952 88.6168 31.4752 88.9368C32.0096 89.3872 32.596 89.8048 33.22 90.1176C36.2944 91.66 38.3992 94.0736 39.9024 97.1352C40.744 98.8496 41.8368 100.44 42.6504 102.261C41.7312 101.72 40.8096 101.183 39.8928 100.638C35.2984 97.908 30.7104 95.1672 26.1072 92.4536C25.5096 92.1008 25.2392 91.704 25.1736 90.976C24.7944 86.8072 24.3416 82.6456 23.916 78.4816C23.8992 78.3144 23.9144 78.1448 23.9144 77.9112Z" fill="white"/>
</svg>
